# Blender 5.1.2
# www.blender.org
mtllib jellyfish_model.mtl
o Object_6
v 0.030667 0.568530 -0.090005
v 0.032377 0.490082 -0.108686
v 0.030667 0.568530 -0.109934
v 0.031648 0.488105 -0.088650
v 0.018953 0.568530 -0.073882
v 0.037132 0.413330 -0.105225
v 0.019155 0.486333 -0.073255
v -0.000000 0.568530 -0.067724
v 0.035357 0.413330 -0.083537
v 0.031635 0.360569 -0.088654
v 0.032365 0.358592 -0.108682
v 0.032869 0.315910 -0.108391
v 0.020672 0.413330 -0.068581
v 0.031983 0.313639 -0.088291
v 0.044599 0.240944 -0.104866
v 0.019148 0.362338 -0.073265
v 0.042102 0.240944 -0.079923
v 0.019299 0.311773 -0.073015
v 0.041902 0.195041 -0.085937
v 0.043252 0.192662 -0.111179
v 0.024744 0.241167 -0.063356
v 0.045466 0.133380 -0.086198
v 0.045437 0.133794 -0.114733
v 0.050584 0.075100 -0.116405
v 0.025853 0.197160 -0.066951
v 0.028853 0.131943 -0.063599
v 0.050463 0.074717 -0.078642
v 0.040322 0.040441 -0.113071
v 0.002469 0.130356 -0.055504
v 0.040322 0.040441 -0.081466
v 0.001836 0.198689 -0.060217
v 0.028674 0.073720 -0.050051
v 0.000962 0.241911 -0.060317
v -0.022290 0.198335 -0.066753
v 0.000037 0.311006 -0.067595
v -0.022964 0.242463 -0.063160
v -0.000000 0.363240 -0.067743
v -0.019258 0.312141 -0.072985
v -0.040500 0.242667 -0.079788
v -0.000000 0.413330 -0.065281
v -0.000000 0.485432 -0.067730
v -0.020672 0.413330 -0.068581
v -0.019155 0.486333 -0.073255
v -0.018953 0.568530 -0.073882
v -0.019148 0.362338 -0.073265
v -0.035357 0.413330 -0.083537
v -0.031648 0.488105 -0.088650
v -0.030667 0.568530 -0.090005
v -0.031984 0.314125 -0.088275
v -0.032377 0.490082 -0.108686
v -0.030667 0.568530 -0.109934
v -0.037132 0.413330 -0.105225
v -0.031636 0.360569 -0.088654
v -0.020355 0.491594 -0.125596
v -0.018953 0.568530 -0.126057
v -0.023721 0.413331 -0.124495
v -0.032365 0.358592 -0.108682
v -0.000000 0.492159 -0.132209
v -0.000000 0.568530 -0.132215
v 0.018953 0.568530 -0.126057
v -0.000000 0.413330 -0.132203
v 0.020355 0.491594 -0.125596
v 0.030667 0.568530 -0.109934
v 0.032377 0.490082 -0.108686
v 0.023721 0.413331 -0.124495
v 0.037132 0.413330 -0.105225
v 0.032365 0.358592 -0.108682
v 0.020347 0.357080 -0.125585
v -0.020347 0.357080 -0.125585
v -0.000000 0.356515 -0.132196
v 0.020740 0.317687 -0.125512
v 0.032869 0.315910 -0.108391
v 0.000012 0.318394 -0.132248
v -0.020731 0.318009 -0.125542
v 0.029040 0.241167 -0.127502
v 0.044599 0.240944 -0.104866
v 0.043252 0.192662 -0.111179
v 0.000941 0.241348 -0.136665
v 0.028140 0.190975 -0.132882
v 0.045437 0.133794 -0.114733
v -0.032872 0.316289 -0.108404
v 0.028688 0.133379 -0.137836
v 0.050584 0.075100 -0.116405
v -0.043020 0.242688 -0.104921
v -0.027262 0.242209 -0.127640
v -0.038426 0.196498 -0.085842
v -0.039698 0.194024 -0.111283
v -0.024326 0.191593 -0.133006
v 0.001953 0.190391 -0.141473
v 0.002009 0.131785 -0.146321
v -0.039999 0.129549 -0.114819
v 0.028289 0.074717 -0.146885
v -0.024098 0.130257 -0.137377
v -0.006143 0.073720 -0.157209
v 0.021746 0.040441 -0.138640
v 0.040322 0.040441 -0.113071
v -0.037499 0.072369 -0.144551
v 0.003576 0.017692 -0.113223
v 0.010581 0.017613 -0.103407
v -0.007263 0.014948 -0.097610
v -0.007145 0.040441 -0.147558
v -0.034093 0.040460 -0.137273
v -0.007474 0.017904 -0.116925
v -0.007263 0.014948 -0.097610
v -0.018142 0.018181 -0.113223
v -0.007263 0.014948 -0.097610
v -0.053718 0.071032 -0.116066
v -0.048972 0.040488 -0.113099
v -0.024139 0.018510 -0.103789
v -0.007263 0.014948 -0.097610
v -0.039965 0.129571 -0.086984
v -0.051263 0.070280 -0.083313
v -0.023643 0.129581 -0.064437
v -0.047472 0.040503 -0.084545
v -0.004133 0.072372 -0.041861
v -0.024112 0.018519 -0.092135
v -0.007263 0.014948 -0.097610
v -0.017537 0.018413 -0.082558
v -0.007263 0.014948 -0.097610
v -0.031902 0.040488 -0.060563
v -0.006887 0.018181 -0.078584
v -0.007263 0.014948 -0.097610
v -0.033998 0.071032 -0.055372
v -0.005656 0.040460 -0.049751
v 0.003919 0.017904 -0.081859
v -0.007263 0.014948 -0.097610
v 0.022191 0.040441 -0.057269
v 0.010683 0.017692 -0.091349
v -0.007263 0.014948 -0.097610
v 0.010581 0.017613 -0.103407
v -0.007263 0.014948 -0.097610
v 0.132891 0.493000 -0.009963
v 0.121183 0.568530 -0.026087
v 0.132897 0.568530 -0.009964
v 0.120203 0.492366 -0.027427
v 0.102229 0.568530 -0.032245
v 0.132885 0.413330 -0.009961
v 0.100299 0.490665 -0.033642
v 0.083276 0.568530 -0.026087
v 0.117856 0.413330 -0.030646
v 0.081484 0.488440 -0.026666
v 0.071562 0.568530 -0.009964
v 0.094944 0.413330 -0.037527
v 0.120195 0.341636 -0.027416
v 0.132879 0.340999 -0.009958
v 0.070820 0.486446 -0.009962
v 0.071562 0.568530 0.009964
v 0.074724 0.413330 -0.028858
v 0.071568 0.485432 0.009963
v 0.065291 0.413330 -0.009961
v 0.081492 0.345560 -0.026655
v 0.082674 0.486446 0.026522
v 0.083276 0.568530 0.026087
v 0.100299 0.343336 -0.033629
v 0.070832 0.347552 -0.009959
v 0.083234 0.310970 -0.026210
v 0.102262 0.310758 -0.032370
v 0.071456 0.311152 -0.010027
v 0.071580 0.348566 0.009959
v 0.071456 0.311152 0.009999
v 0.068947 0.413330 0.010814
v 0.082682 0.347552 0.026512
v 0.078200 0.413330 0.029770
v 0.096940 0.413330 0.039514
v 0.083227 0.311152 0.026200
v 0.101120 0.488440 0.033767
v 0.102229 0.568530 0.032245
v 0.101120 0.345561 0.033754
v 0.118393 0.413330 0.034642
v 0.120442 0.490665 0.028352
v 0.121183 0.568530 0.026087
v 0.120434 0.343338 0.028341
v 0.132891 0.492366 0.011625
v 0.132897 0.568530 0.009964
v 0.132885 0.413331 0.015608
v 0.132891 0.493000 -0.009963
v 0.132897 0.568530 -0.009964
v 0.132885 0.413330 -0.009961
v 0.132879 0.341637 0.011621
v 0.132879 0.340999 -0.009958
v 0.102268 0.310970 0.032370
v 0.121282 0.310758 0.026169
v 0.133021 0.310626 0.009986
v 0.133021 0.310626 -0.010005
v 0.137920 0.242987 0.009991
v 0.137824 0.242209 -0.012825
v 0.102165 0.243856 0.036117
v 0.124257 0.243419 0.028808
v 0.144316 0.196818 0.008600
v 0.143920 0.196715 -0.018817
v 0.148204 0.129058 -0.016765
v 0.148499 0.127411 0.012590
v 0.152464 0.074935 -0.016322
v 0.127538 0.196884 0.031719
v 0.152337 0.074537 0.021456
v 0.142193 0.040249 -0.012985
v 0.131051 0.125582 0.036310
v 0.100383 0.197526 0.040683
v 0.103493 0.124537 0.044694
v 0.130556 0.073500 0.049984
v 0.080383 0.243832 0.029023
v 0.076977 0.124994 0.035297
v 0.067496 0.243144 0.010553
v 0.074236 0.198192 0.031929
v 0.068220 0.242084 -0.011847
v 0.059906 0.198307 0.009889
v 0.061272 0.126504 0.012410
v 0.062364 0.198035 -0.015599
v 0.081851 0.240969 -0.029703
v 0.062197 0.127849 -0.015077
v 0.079421 0.197361 -0.034551
v 0.103023 0.240686 -0.036927
v 0.102719 0.196820 -0.044643
v 0.078391 0.129271 -0.037089
v 0.121271 0.310626 -0.026177
v 0.133021 0.310626 -0.010005
v 0.137824 0.242209 -0.012825
v 0.124348 0.241290 -0.030658
v 0.143920 0.196715 -0.018817
v 0.127515 0.196756 -0.039081
v 0.104044 0.130135 -0.046600
v 0.130755 0.130266 -0.039359
v 0.148204 0.129058 -0.016765
v 0.152464 0.074935 -0.016322
v 0.130156 0.074536 -0.046811
v 0.095766 0.073502 -0.057088
v 0.123597 0.040247 -0.038574
v 0.142193 0.040249 -0.012985
v 0.064572 0.072101 -0.044387
v 0.105424 0.017485 -0.013137
v 0.112429 0.017404 -0.003314
v 0.094603 0.014753 0.002478
v 0.094725 0.040249 -0.047472
v 0.067870 0.040268 -0.037157
v 0.094384 0.017706 -0.016840
v 0.094603 0.014753 0.002478
v 0.083741 0.017994 -0.013137
v 0.094603 0.014753 0.002478
v 0.048576 0.070708 -0.015969
v 0.053116 0.040297 -0.013014
v 0.077782 0.018335 -0.003710
v 0.094603 0.014753 0.002478
v 0.051128 0.069927 0.016604
v 0.054674 0.040313 0.015452
v 0.077811 0.018344 0.007934
v 0.094603 0.014753 0.002478
v 0.084370 0.018234 0.017509
v 0.094603 0.014753 0.002478
v 0.070145 0.040297 0.039397
v 0.068209 0.070708 0.044456
v 0.094994 0.017994 0.021495
v 0.094603 0.014753 0.002478
v 0.097854 0.072101 0.058044
v 0.096272 0.040268 0.050257
v 0.124062 0.040249 0.042816
v 0.105781 0.017706 0.018236
v 0.094603 0.014753 0.002478
v 0.142190 0.040247 0.018648
v 0.112536 0.017485 0.008751
v 0.094603 0.014753 0.002478
v 0.112429 0.017404 -0.003314
v 0.094603 0.014753 0.002478
v 0.031153 0.488921 0.089130
v 0.018953 0.568530 0.074518
v 0.030667 0.568530 0.090641
v 0.018950 0.487435 0.073266
v -0.000000 0.568530 0.068359
v 0.032511 0.413330 0.084934
v -0.000154 0.486107 0.067892
v -0.018953 0.568530 0.074518
v 0.018946 0.413330 0.068528
v 0.019152 0.359847 0.073982
v 0.031106 0.357998 0.089720
v -0.001294 0.413330 0.064388
v 0.019882 0.311613 0.076783
v 0.030862 0.311349 0.092197
v 0.036422 0.251964 0.089090
v 0.000160 0.361733 0.068340
v 0.001512 0.311847 0.070207
v 0.022877 0.251493 0.070735
v 0.043702 0.208399 0.082867
v 0.000864 0.251156 0.063821
v -0.017636 0.311847 0.075406
v 0.026301 0.208951 0.061187
v -0.000181 0.209622 0.055123
v 0.030414 0.136527 0.061855
v 0.049021 0.136095 0.085317
v 0.056103 0.077297 0.076972
v 0.001724 0.137427 0.054077
v 0.033274 0.076065 0.049219
v -0.000864 0.074846 0.041623
v 0.027113 0.042342 0.055313
v 0.046153 0.042324 0.079232
v 0.015442 0.018653 0.088890
v 0.008248 0.018910 0.079342
v -0.003816 0.015532 0.095353
v -0.002112 0.042370 0.047924
v -0.003203 0.019213 0.076297
v -0.003816 0.015532 0.095353
v -0.014884 0.019222 0.080119
v -0.003816 0.015532 0.095353
v -0.030513 0.042385 0.058607
v -0.022318 0.019124 0.089863
v -0.003816 0.015532 0.095353
v -0.033439 0.074162 0.054580
v -0.022771 0.018910 0.101879
v -0.003816 0.015532 0.095353
v -0.049450 0.042370 0.082317
v -0.055828 0.074846 0.081557
v -0.026605 0.138185 0.063986
v -0.051453 0.042342 0.112395
v -0.015913 0.018653 0.111672
v -0.003816 0.015532 0.095353
v -0.025126 0.209846 0.066022
v -0.034589 0.042324 0.137894
v -0.021393 0.250674 0.071037
v -0.004193 0.018457 0.115376
v -0.003816 0.015532 0.095353
v -0.043200 0.209622 0.086378
v 0.007823 0.018384 0.111372
v -0.003816 0.015532 0.095353
v -0.044795 0.137450 0.087859
v -0.035676 0.250628 0.089549
v -0.045616 0.208951 0.113438
v -0.059153 0.076065 0.116372
v -0.046292 0.136612 0.117547
v -0.039813 0.077295 0.146658
v -0.029733 0.136207 0.142491
v -0.030374 0.208396 0.136687
v -0.004001 0.078225 0.159100
v -0.004415 0.042321 0.148126
v 0.027089 0.042321 0.137890
v 0.015344 0.018457 0.101181
v -0.003816 0.015532 0.095353
v 0.015442 0.018653 0.088890
v -0.003816 0.015532 0.095353
v 0.046153 0.042324 0.079232
v 0.046560 0.042321 0.111091
v 0.056103 0.077297 0.076972
v 0.056869 0.078224 0.114876
v 0.049021 0.136095 0.085317
v 0.033688 0.078578 0.146972
v 0.049523 0.136098 0.116376
v -0.000304 0.136097 0.152577
v 0.030500 0.135946 0.142584
v -0.002716 0.208215 0.146040
v 0.026166 0.208079 0.136619
v 0.044051 0.208219 0.112062
v 0.043702 0.208399 0.082867
v 0.036422 0.251964 0.089090
v -0.022197 0.251224 0.131390
v 0.036427 0.252500 0.112013
v 0.030862 0.311349 0.092197
v -0.035986 0.250737 0.112700
v 0.000296 0.252068 0.138333
v -0.016642 0.311350 0.126093
v -0.029079 0.311614 0.110671
v 0.022693 0.252470 0.130844
v 0.002059 0.311257 0.131572
v 0.020003 0.311257 0.125584
v 0.030851 0.311257 0.110653
v 0.019229 0.356509 0.126282
v 0.031250 0.356768 0.109737
v 0.031106 0.357998 0.089720
v -0.000438 0.357311 0.132747
v 0.018946 0.413331 0.126682
v 0.032869 0.413330 0.107519
v 0.032511 0.413330 0.084934
v 0.031153 0.488921 0.089130
v 0.031313 0.490055 0.109671
v 0.030667 0.568530 0.090641
v 0.030667 0.568530 0.110569
v 0.018950 0.490477 0.126687
v 0.018953 0.568530 0.126692
v -0.000000 0.568530 0.132850
v -0.001054 0.490055 0.133187
v -0.018953 0.568530 0.126692
v -0.003581 0.413331 0.134002
v -0.020541 0.488921 0.126687
v -0.030667 0.568530 0.110569
v -0.019975 0.358969 0.126508
v -0.024950 0.413331 0.126682
v -0.031857 0.487435 0.110179
v -0.030667 0.568530 0.090641
v -0.031632 0.360950 0.110175
v -0.036361 0.413330 0.108712
v -0.031065 0.486107 0.090350
v -0.030122 0.311847 0.090850
v -0.031062 0.362550 0.090347
v -0.018782 0.362940 0.074644
v -0.034044 0.413330 0.088182
v -0.018950 0.485432 0.074523
v -0.020029 0.413330 0.073038
v -0.079859 0.014641 -0.010808
v -0.073230 0.015708 -0.001112
v -0.092549 0.011869 0.005742
v -0.043111 0.040200 -0.011744
v -0.059176 0.038497 -0.037695
v -0.033252 0.076099 -0.015413
v -0.091644 0.013733 -0.014337
v -0.092549 0.011869 0.005742
v -0.052241 0.075944 -0.047043
v -0.090424 0.037317 -0.048246
v -0.063940 0.145592 -0.043019
v -0.046376 0.144688 -0.016412
v -0.090071 0.075928 -0.060293
v -0.068586 0.214130 -0.035898
v -0.051034 0.215662 -0.011616
v -0.096255 0.147127 -0.053840
v -0.123811 0.036908 -0.037287
v -0.130899 0.075944 -0.047043
v -0.104073 0.013492 -0.010120
v -0.092549 0.011869 0.005742
v -0.111925 0.013733 0.000398
v -0.092549 0.011869 0.005742
v -0.129972 0.148346 -0.042751
v -0.144551 0.037318 -0.008921
v -0.156117 0.075928 -0.012308
v -0.112171 0.014517 0.012818
v -0.092549 0.011869 0.005742
v -0.144172 0.038497 0.024058
v -0.104983 0.015583 0.022140
v -0.092549 0.011869 0.005742
v -0.124454 0.040189 0.047387
v -0.155206 0.075945 0.027766
v -0.093402 0.016524 0.024967
v -0.092549 0.011869 0.005742
v -0.094971 0.041772 0.053153
v -0.130992 0.076099 0.055599
v -0.095868 0.076318 0.061154
v -0.067015 0.042816 0.040886
v -0.081828 0.017029 0.020498
v -0.092549 0.011869 0.005742
v -0.074082 0.016609 0.010789
v -0.092549 0.011869 0.005742
v -0.073230 0.015708 -0.001112
v -0.092549 0.011869 0.005742
v -0.046804 0.041812 0.018015
v -0.043111 0.040200 -0.011744
v -0.033252 0.076099 -0.015413
v -0.038833 0.076318 0.019702
v -0.064064 0.076450 0.044948
v -0.048972 0.144531 0.014450
v -0.046376 0.144688 -0.016412
v -0.051034 0.215662 -0.011616
v -0.069115 0.144884 0.038311
v -0.052319 0.216791 0.017040
v -0.098690 0.146697 0.048385
v -0.070843 0.217085 0.038136
v -0.059528 0.255389 0.011784
v -0.060009 0.255377 -0.011875
v -0.063973 0.311614 -0.010691
v -0.073059 0.254322 0.031156
v -0.061284 0.311914 0.009991
v -0.066071 0.348571 -0.009959
v -0.071421 0.312031 0.028266
v -0.065087 0.348713 0.009959
v -0.075298 0.348861 0.026878
v -0.062225 0.413330 0.009961
v -0.064459 0.413330 -0.010482
v -0.066059 0.485432 -0.009962
v -0.091450 0.312032 0.036302
v -0.065602 0.486051 0.009963
v -0.066053 0.568530 -0.009964
v -0.066053 0.568530 0.009964
v -0.072544 0.413330 0.027777
v -0.076674 0.487270 0.026439
v -0.077767 0.568530 0.026087
v -0.092268 0.413330 0.035468
v -0.095541 0.488630 0.033097
v -0.096720 0.568530 0.032245
v -0.093943 0.348923 0.034245
v -0.113638 0.413330 0.028869
v -0.115073 0.489670 0.026904
v -0.115674 0.568530 0.026087
v -0.114212 0.348880 0.028070
v -0.127382 0.490057 0.009963
v -0.127388 0.568530 0.009964
v -0.127388 0.568530 -0.009964
v -0.127376 0.413330 0.009961
v -0.127382 0.489670 -0.010978
v -0.115674 0.568530 -0.026087
v -0.127370 0.348840 0.009959
v -0.115220 0.488630 -0.027469
v -0.096720 0.568530 -0.032245
v -0.127376 0.413330 -0.013412
v -0.127370 0.348880 -0.012428
v -0.096043 0.487270 -0.033173
v -0.077767 0.568530 -0.026087
v -0.113966 0.413330 -0.031311
v -0.077401 0.486051 -0.026351
v -0.066053 0.568530 -0.009964
v -0.066059 0.485432 -0.009962
v -0.093488 0.413330 -0.036682
v -0.074668 0.413330 -0.028334
v -0.064459 0.413330 -0.010482
v -0.076982 0.348711 -0.026651
v -0.066071 0.348571 -0.009959
v -0.063973 0.311614 -0.010691
v -0.095188 0.348859 -0.034337
v -0.074004 0.311166 -0.028930
v -0.060009 0.255377 -0.011875
v -0.092901 0.310896 -0.037683
v -0.073576 0.253829 -0.031647
v -0.096298 0.252476 -0.040335
v -0.098175 0.213817 -0.045436
v -0.113747 0.310858 -0.032426
v -0.120125 0.251184 -0.033642
v -0.127706 0.213702 -0.035810
v -0.114602 0.348921 -0.029337
v -0.127524 0.310856 -0.014125
v -0.127560 0.311166 0.009981
v -0.135126 0.249918 -0.013449
v -0.144910 0.213698 -0.011449
v -0.113410 0.311614 0.029535
v -0.134815 0.249601 0.011844
v -0.119603 0.250892 0.031841
v -0.095903 0.252734 0.038883
v -0.098255 0.216692 0.044048
v -0.143499 0.214017 0.016887
v -0.125411 0.215368 0.037865
v -0.148615 0.148718 0.017582
v -0.128619 0.147871 0.041052
v -0.149979 0.149015 -0.014639
v 0.000000 0.632533 0.000000
v 0.115079 0.518220 0.115079
v 0.061079 0.523381 0.158513
v 0.129357 0.514692 0.129357
v 0.000000 0.525310 0.171310
v 0.066490 0.522041 0.177465
v 0.146997 0.535604 0.146997
v 0.000000 0.525021 0.190209
v 0.072878 0.540780 0.198557
v 0.075344 0.563202 0.205722
v 0.153500 0.563202 0.153499
v 0.145206 0.578318 0.145206
v 0.000000 0.542895 0.210315
v 0.071557 0.575444 0.197047
v 0.000000 0.563202 0.217081
v -0.072879 0.540780 0.198556
v 0.063473 0.578581 0.175825
v 0.126345 0.581620 0.126345
v 0.000000 0.574212 0.208538
v 0.073233 0.578495 0.191074
v 0.142124 0.581284 0.142124
v 0.000000 0.577131 0.188034
v 0.089609 0.612452 0.216336
v 0.166346 0.615598 0.166346
v 0.000000 0.577549 0.204308
v 0.000000 0.612452 0.234160
v 0.094543 0.674116 0.221634
v 0.173097 0.674116 0.173098
v 0.160849 0.747976 0.160849
v -0.000000 0.674116 0.237889
v 0.088524 0.753908 0.204671
v 0.139202 0.803432 0.139203
v -0.089609 0.612452 0.216336
v 0.082593 0.825080 0.160849
v -0.000000 0.759052 0.219583
v -0.073233 0.578495 0.191074
v -0.142124 0.581284 0.142124
v -0.166346 0.615598 0.166346
v -0.126345 0.581620 0.126345
v -0.094543 0.674116 0.221634
v -0.173097 0.674116 0.173098
v -0.160849 0.747976 0.160849
v -0.088524 0.753908 0.204671
v -0.139202 0.803432 0.139203
v -0.082593 0.825080 0.160849
v -0.000000 0.835726 0.171495
v -0.000000 0.888387 0.093668
v -0.088524 0.873475 0.088525
v 0.088524 0.873475 0.088525
v -0.000000 0.904492 0.000000
v -0.160849 0.825080 0.082593
v 0.160849 0.825080 0.082593
v -0.204671 0.753908 0.088525
v -0.160849 0.747976 0.160849
v -0.093668 0.888387 0.000000
v -0.221634 0.674116 0.094543
v -0.173097 0.674116 0.173098
v -0.166346 0.615598 0.166346
v -0.216336 0.612452 0.089609
v -0.142124 0.581284 0.142124
v -0.237889 0.674116 0.000000
v -0.191073 0.578495 0.073233
v -0.126345 0.581620 0.126345
v -0.234160 0.612452 -0.000000
v -0.175825 0.578581 0.063473
v -0.145206 0.578318 0.145206
v -0.204650 0.578866 0.007599
v -0.186221 0.579149 0.012026
v -0.197047 0.575444 0.071557
v -0.205722 0.563202 0.075344
v -0.153499 0.563202 0.153500
v -0.146997 0.535604 0.146997
v -0.209781 0.575926 0.012935
v -0.198556 0.540780 0.072880
v -0.219604 0.563202 0.012686
v -0.188569 0.579924 -0.078108
v -0.177465 0.522041 0.066490
v -0.129357 0.514692 0.129357
v -0.211729 0.539953 0.012038
v -0.158513 0.523381 0.061079
v -0.115078 0.518220 0.115078
v 0.000000 0.632533 0.000000
v -0.189085 0.520875 0.009022
v -0.169238 0.522626 0.005886
v -0.147261 0.515445 -0.060997
v -0.116236 0.521714 -0.122108
v -0.166385 0.510650 -0.068919
v -0.129053 0.519221 -0.137720
v -0.191183 0.532750 -0.079191
v -0.144592 0.538598 -0.155760
v -0.200557 0.563202 -0.083073
v -0.150293 0.563202 -0.161970
v -0.142826 0.576750 -0.154694
v -0.125522 0.580083 -0.136647
v -0.161696 0.583377 -0.066977
v -0.184496 0.582746 -0.076421
v -0.141192 0.579384 -0.148418
v -0.165576 0.612452 -0.165576
v -0.217735 0.616829 -0.090189
v -0.221634 0.674116 -0.094543
v -0.173097 0.674116 -0.173097
v -0.160849 0.747976 -0.160849
v -0.204671 0.753908 -0.088524
v -0.139202 0.803432 -0.139202
v -0.219583 0.759052 0.000000
v -0.160849 0.825080 -0.082593
v -0.171495 0.835726 0.000000
v -0.088524 0.873475 -0.088524
v -0.082593 0.825080 -0.160849
v -0.000000 0.888387 -0.093668
v -0.088524 0.753908 -0.204671
v -0.160849 0.747976 -0.160849
v -0.000000 0.835726 -0.171495
v -0.094543 0.674116 -0.221634
v -0.173097 0.674116 -0.173097
v -0.165576 0.612452 -0.165576
v -0.000000 0.759052 -0.219583
v -0.089772 0.613683 -0.216729
v -0.141192 0.579384 -0.148418
v -0.000000 0.674116 -0.237889
v -0.076917 0.578599 -0.187811
v -0.125522 0.580083 -0.136647
v -0.000002 0.612410 -0.234147
v -0.068459 0.577655 -0.171645
v -0.002695 0.576484 -0.205090
v -0.075524 0.574001 -0.192536
v -0.142826 0.576750 -0.154694
v -0.003964 0.575138 -0.188801
v 0.076806 0.580844 -0.186026
v -0.078295 0.561789 -0.201236
v -0.150293 0.563202 -0.161970
v -0.144592 0.538598 -0.155760
v -0.004174 0.570353 -0.210162
v -0.074685 0.540025 -0.194739
v -0.129053 0.519221 -0.137720
v -0.004117 0.558914 -0.218296
v 0.075782 0.576613 -0.190739
v 0.067330 0.580466 -0.166689
v 0.130843 0.583591 -0.131623
v 0.148268 0.581681 -0.152075
v 0.145490 0.580807 -0.144733
v 0.079166 0.562162 -0.201082
v 0.155681 0.567449 -0.161608
v 0.147981 0.539716 -0.157079
v 0.089991 0.615325 -0.217253
v 0.165408 0.612860 -0.166074
v 0.094543 0.674116 -0.221634
v 0.173097 0.674116 -0.173097
v 0.160849 0.747976 -0.160849
v 0.088524 0.753908 -0.204671
v 0.139202 0.803432 -0.139202
v 0.082593 0.825080 -0.160849
v 0.088524 0.873475 -0.088524
v 0.093668 0.888387 0.000000
v 0.160849 0.825080 -0.082593
v 0.171495 0.835726 0.000000
v 0.219583 0.759052 0.000000
v 0.204671 0.753908 -0.088524
v 0.160849 0.747976 -0.160849
v 0.204671 0.753908 0.088525
v 0.160849 0.747976 0.160849
v 0.237889 0.674116 0.000000
v 0.221634 0.674116 -0.094543
v 0.173097 0.674116 -0.173097
v 0.165408 0.612860 -0.166074
v 0.221634 0.674116 0.094543
v 0.173097 0.674116 0.173098
v 0.166346 0.615598 0.166346
v 0.216954 0.614408 -0.089865
v 0.145490 0.580807 -0.144733
v 0.216336 0.612452 0.089609
v 0.142124 0.581284 0.142124
v 0.234393 0.612860 0.000471
v 0.187234 0.587060 -0.077555
v 0.130843 0.583591 -0.131623
v 0.191074 0.578495 0.073233
v 0.126345 0.581620 0.126345
v 0.204916 0.579661 0.004898
v 0.165222 0.591269 -0.068437
v 0.175822 0.578591 0.063497
v 0.187270 0.581304 0.009807
v 0.145206 0.578318 0.145206
v 0.191723 0.592162 -0.079415
v 0.148268 0.581681 -0.152075
v 0.210849 0.579297 0.013069
v 0.197047 0.575444 0.071557
v 0.204642 0.576474 -0.084766
v 0.155681 0.567449 -0.161608
v 0.147981 0.539716 -0.157079
v 0.221215 0.566889 0.014610
v 0.205728 0.563207 0.075372
v 0.153500 0.563202 0.153499
v 0.146997 0.535604 0.146997
v 0.194306 0.542895 -0.080484
v 0.126765 0.516477 -0.139198
v 0.213659 0.542895 0.016811
v 0.198576 0.540771 0.073000
v 0.164115 0.513845 -0.067979
v 0.110126 0.519396 -0.123201
v 0.189367 0.521349 0.016538
v 0.140433 0.516606 -0.058169
v 0.000000 0.632533 0.000000
v 0.167298 0.522242 0.014043
v 0.177446 0.521961 0.066752
v 0.129357 0.514692 0.129357
v 0.158409 0.523284 0.061422
v 0.115079 0.518220 0.115079
v 0.000000 0.632533 0.000000
v -0.061079 0.523381 0.158513
v -0.115078 0.518220 0.115078
v -0.129357 0.514692 0.129357
v -0.066489 0.522041 0.177465
v -0.146997 0.535604 0.146997
v -0.075343 0.563202 0.205722
v -0.153499 0.563202 0.153500
v -0.145206 0.578318 0.145206
v -0.071556 0.575444 0.197048
v -0.063473 0.578581 0.175825
v 0.074922 0.536432 -0.193448
v 0.126765 0.516477 -0.139198
v 0.066277 0.516743 -0.171917
v 0.110126 0.519396 -0.123201
v -0.003973 0.539804 -0.211798
v -0.003277 0.524164 -0.193074
v -0.067159 0.522243 -0.175697
v -0.002396 0.525061 -0.175172
v 0.059587 0.519578 -0.153630
v 0.000000 0.632533 0.000000
v -0.061046 0.523464 -0.158211
v -0.116236 0.521714 -0.122108
vn 0.9507 0.0211 0.3095
vn 0.9986 0.0369 0.0369
vn 0.9998 0.0218 -0.0000
vn 0.9354 0.0434 0.3510
vn 0.5848 0.0135 0.8111
vn 0.9972 -0.0125 0.0743
vn 0.5483 0.0408 0.8353
vn -0.0000 0.0071 1.0000
vn 0.9085 -0.0137 0.4178
vn 0.9351 -0.0477 0.3511
vn 0.9986 -0.0347 0.0398
vn 0.9957 0.0768 0.0512
vn 0.4669 -0.0120 0.8842
vn 0.9269 0.0932 0.3635
vn 0.9941 0.0612 0.0896
vn 0.5450 -0.0517 0.8369
vn 0.8951 0.0589 0.4420
vn 0.5280 0.0809 0.8454
vn 0.9333 0.0022 0.3590
vn 0.9989 0.0138 0.0446
vn 0.4373 0.0599 0.8973
vn 0.9489 0.0824 0.3046
vn 0.9980 0.0627 -0.0001
vn 0.9954 -0.0955 0.0017
vn 0.5384 -0.0034 0.8427
vn 0.5774 0.1235 0.8071
vn 0.9418 -0.0837 0.3257
vn 0.8449 -0.5349 0.0001
vn -0.0120 0.1524 0.9882
vn 0.7904 -0.5522 0.2652
vn -0.0067 0.0199 0.9998
vn 0.5455 -0.0453 0.8369
vn -0.0007 0.0473 0.9989
vn -0.5248 -0.0122 0.8511
vn 0.0096 0.0677 0.9977
vn -0.4272 0.0252 0.9038
vn 0.0004 -0.0433 0.9991
vn -0.5338 0.0854 0.8413
vn -0.8957 0.0336 0.4434
vn -0.0000 -0.0075 1.0000
vn -0.0000 0.0328 0.9995
vn -0.4669 -0.0120 0.8842
vn -0.5483 0.0408 0.8353
vn -0.5848 0.0135 0.8111
vn -0.5454 -0.0510 0.8366
vn -0.9085 -0.0137 0.4177
vn -0.9354 0.0434 0.3510
vn -0.9507 0.0211 0.3095
vn -0.9281 0.0844 0.3626
vn -0.9568 0.0290 -0.2893
vn -0.9499 0.0170 -0.3122
vn -0.9684 -0.0094 -0.2491
vn -0.9352 -0.0476 0.3510
vn -0.5900 0.0091 -0.8073
vn -0.5849 0.0058 -0.8111
vn -0.6036 -0.0030 -0.7973
vn -0.9557 -0.0268 -0.2932
vn -0.0000 -0.0001 -1.0000
vn 0.5849 0.0058 -0.8111
vn 0.5900 0.0091 -0.8073
vn 0.8100 0.0108 -0.5863
vn 0.8161 0.0183 -0.5776
vn 0.6036 -0.0030 -0.7973
vn 0.8208 -0.0049 -0.5712
vn 0.8164 -0.0169 -0.5773
vn 0.5867 -0.0069 -0.8098
vn -0.5867 -0.0068 -0.8098
vn -0.0000 0.0006 -1.0000
vn 0.5888 0.0433 -0.8071
vn 0.8179 0.0591 -0.5724
vn -0.0003 0.0291 -0.9996
vn -0.5891 0.0375 -0.8072
vn 0.6085 0.0807 -0.7895
vn 0.8220 0.0763 -0.5643
vn 0.8183 0.0558 -0.5721
vn 0.0028 0.0764 -0.9971
vn 0.5897 0.0770 -0.8040
vn 0.8081 0.0736 -0.5845
vn -0.9567 0.0624 -0.2844
vn 0.5851 0.0964 -0.8052
vn 0.8044 -0.0954 -0.5864
vn -0.9716 0.0442 -0.2324
vn -0.6051 0.0617 -0.7937
vn -0.9320 -0.0354 0.3607
vn -0.9568 0.0014 -0.2907
vn -0.5854 0.0563 -0.8088
vn 0.0043 0.0892 -0.9960
vn -0.0032 0.1331 -0.9911
vn -0.9431 0.1270 -0.3073
vn 0.5704 -0.0836 -0.8171
vn -0.5962 0.1439 -0.7898
vn -0.0498 -0.0440 -0.9978
vn 0.4835 -0.5522 -0.6792
vn 0.6835 -0.5350 -0.4966
vn -0.6599 0.0022 -0.7514
vn 0.2393 -0.9093 -0.3404
vn 0.3489 -0.9014 -0.2562
vn 0.1178 -0.9888 -0.0920
vn -0.0307 -0.5422 -0.8397
vn -0.5550 -0.5125 -0.6552
vn -0.0228 -0.9055 -0.4237
vn 0.0318 -0.9879 -0.1515
vn -0.2969 -0.8959 -0.3304
vn -0.0777 -0.9856 -0.1500
vn -0.9715 0.0238 -0.2356
vn -0.8562 -0.4711 -0.2121
vn -0.4590 -0.8817 -0.1089
vn -0.1781 -0.9808 -0.0791
vn -0.9428 0.1130 0.3136
vn -0.9491 0.0307 0.3135
vn -0.5958 0.1330 0.7921
vn -0.8505 -0.4481 0.2753
vn -0.0844 -0.0086 0.9964
vn -0.4658 -0.8737 0.1406
vn -0.2070 -0.9783 0.0013
vn -0.3059 -0.8819 0.3589
vn -0.1726 -0.9791 0.1076
vn -0.5678 -0.4695 0.6762
vn -0.0403 -0.8955 0.4433
vn -0.0843 -0.9821 0.1686
vn -0.6560 0.0229 0.7544
vn -0.0626 -0.5117 0.8569
vn 0.2305 -0.9055 0.3562
vn 0.0253 -0.9856 0.1670
vn 0.4679 -0.5413 0.6987
vn 0.3937 -0.9093 0.1348
vn 0.1148 -0.9879 0.1039
vn 0.4329 -0.9014 0.0022
vn 0.1494 -0.9888 0.0052
vn 0.8090 -0.0001 -0.5878
vn 0.5911 0.0066 -0.8066
vn 0.5851 0.0101 -0.8109
vn 0.0038 0.0193 -0.9998
vn -0.0234 0.0325 -0.9992
vn -0.5882 0.0239 -0.8084
vn 0.5710 -0.0009 -0.8210
vn -0.6275 0.0487 -0.7771
vn -0.9522 0.0153 -0.3050
vn -0.0679 -0.0028 -0.9977
vn 0.5834 -0.0132 -0.8120
vn 0.8090 0.0023 -0.5877
vn -0.9653 0.0460 -0.2572
vn -0.9510 0.0080 0.3090
vn -0.6877 -0.0040 -0.7260
vn -0.9504 0.0369 0.3088
vn -0.9882 -0.0035 -0.1533
vn -0.6268 -0.0610 -0.7768
vn -0.6297 0.0460 0.7754
vn -0.5911 0.0153 0.8065
vn -0.0247 -0.0439 -0.9987
vn -0.9648 -0.0526 -0.2576
vn -0.5877 0.0028 -0.8091
vn 0.0038 0.0110 -0.9999
vn -0.9520 0.0145 -0.3058
vn -0.9484 -0.0298 0.3158
vn -0.9505 0.0235 0.3099
vn -0.9491 -0.0105 0.3149
vn -0.6342 -0.0441 0.7719
vn -0.7136 -0.0121 0.7005
vn -0.1296 -0.0040 0.9916
vn -0.5912 0.0138 0.8064
vn -0.0509 0.0487 0.9975
vn -0.0007 0.0239 0.9997
vn -0.0505 -0.0610 0.9969
vn 0.5315 -0.0028 0.8470
vn 0.5684 0.0325 0.8221
vn 0.5908 0.0193 0.8066
vn 0.5670 -0.0439 0.8225
vn 0.9500 0.0101 0.3121
vn 0.9523 0.0066 0.3051
vn 0.9445 -0.0009 0.3286
vn 1.0000 -0.0001 -0.0000
vn 0.9493 -0.0132 0.3140
vn 1.0000 0.0023 -0.0000
vn 0.0004 0.0031 1.0000
vn 0.5915 0.0087 0.8063
vn 0.9517 0.0290 0.3058
vn 0.9992 0.0387 -0.0007
vn 0.9465 0.0948 0.3084
vn 0.9943 0.1059 -0.0089
vn 0.0066 0.0765 0.9970
vn 0.5887 0.0750 0.8049
vn 0.9516 0.0983 0.2911
vn 0.9951 0.0975 -0.0148
vn 0.9976 0.0690 -0.0071
vn 0.9488 0.0962 0.3009
vn 0.9951 -0.0991 0.0006
vn 0.5879 0.0849 0.8045
vn 0.9404 -0.0824 0.3300
vn 0.5788 0.1444 0.8026
vn -0.0092 0.0739 0.9972
vn -0.0135 0.1651 0.9862
vn 0.5432 -0.0354 0.8389
vn -0.5915 0.0925 0.8010
vn -0.6058 0.1305 0.7848
vn -0.9521 0.1066 0.2867
vn -0.6185 0.0741 0.7823
vn -0.9343 0.1083 -0.3397
vn -0.9685 0.0756 0.2372
vn -0.9506 0.1024 0.2930
vn -0.9137 0.0690 -0.4005
vn -0.5782 0.1050 -0.8091
vn -0.9354 0.1174 -0.3334
vn -0.5831 0.0681 -0.8096
vn -0.0195 0.1230 -0.9922
vn -0.0847 0.0971 -0.9917
vn -0.6013 0.1356 -0.7874
vn 0.5899 0.0332 -0.8068
vn 0.8083 0.0429 -0.5872
vn 0.7893 0.1279 -0.6005
vn 0.5578 0.1344 -0.8190
vn 0.7772 0.1059 -0.6203
vn 0.5198 0.1141 -0.8466
vn -0.0343 0.1052 -0.9939
vn 0.5662 0.0623 -0.8219
vn 0.7918 0.0453 -0.6091
vn 0.8010 -0.1069 -0.5891
vn 0.5683 -0.0894 -0.8180
vn -0.0532 -0.0426 -0.9977
vn 0.4833 -0.5522 -0.6794
vn -0.6630 0.0081 -0.7486
vn 0.2389 -0.9094 -0.3404
vn 0.3487 -0.9016 -0.2561
vn 0.1172 -0.9889 -0.0918
vn -0.0320 -0.5417 -0.8399
vn -0.5578 -0.5106 -0.6543
vn -0.0238 -0.9055 -0.4237
vn 0.0310 -0.9880 -0.1514
vn -0.2989 -0.8954 -0.3299
vn -0.0788 -0.9856 -0.1497
vn -0.9718 0.0265 -0.2345
vn -0.8588 -0.4673 -0.2101
vn -0.4614 -0.8806 -0.1080
vn -0.1800 -0.9806 -0.0783
vn -0.9489 0.0305 0.3141
vn -0.8529 -0.4431 0.2760
vn -0.4685 -0.8721 0.1411
vn -0.2087 -0.9780 0.0013
vn -0.3083 -0.8807 0.3596
vn -0.1742 -0.9788 0.1081
vn -0.5711 -0.4656 0.6761
vn -0.6575 0.0255 0.7531
vn -0.0420 -0.8949 0.4442
vn -0.0857 -0.9819 0.1691
vn -0.0863 -0.0000 0.9963
vn -0.0653 -0.5097 0.8579
vn 0.4670 -0.5407 0.6997
vn 0.2298 -0.9055 0.3568
vn 0.0243 -0.9856 0.1674
vn 0.7903 -0.5522 0.2655
vn 0.3934 -0.9094 0.1349
vn 0.1141 -0.9880 0.1042
vn 0.4326 -0.9016 0.0023
vn 0.1488 -0.9889 0.0054
vn 0.7924 0.0281 -0.6093
vn 0.5874 0.0156 -0.8092
vn 0.8089 0.0161 -0.5877
vn 0.5605 0.0326 -0.8275
vn -0.0027 0.0101 -0.9999
vn 0.7747 -0.0115 -0.6322
vn -0.0350 0.0306 -0.9989
vn -0.5878 0.0053 -0.8090
vn 0.5132 -0.0131 -0.8581
vn 0.5660 -0.0585 -0.8223
vn 0.7953 -0.0472 -0.6044
vn -0.1078 -0.0117 -0.9941
vn 0.6040 0.0325 -0.7963
vn 0.8142 0.0374 -0.5794
vn 0.7939 0.1570 -0.5874
vn -0.0222 -0.0599 -0.9980
vn 0.0400 0.0294 -0.9988
vn 0.5665 0.1659 -0.8072
vn 0.7792 0.1185 -0.6155
vn -0.0014 0.1558 -0.9878
vn -0.5515 0.0334 -0.8335
vn 0.5224 0.1256 -0.8434
vn -0.0774 0.1122 -0.9907
vn 0.5531 0.1098 -0.8259
vn 0.7798 0.1099 -0.6164
vn 0.7761 -0.0248 -0.6301
vn -0.0293 0.1040 -0.9941
vn 0.5228 -0.0211 -0.8522
vn -0.0659 0.0031 -0.9978
vn 0.4573 -0.5175 -0.7232
vn 0.6735 -0.5085 -0.5365
vn 0.3464 -0.8937 -0.2851
vn 0.2259 -0.8974 -0.3790
vn 0.1204 -0.9858 -0.1172
vn -0.0517 -0.4841 -0.8735
vn -0.0333 -0.8852 -0.4639
vn 0.0242 -0.9817 -0.1889
vn -0.2738 -0.8783 -0.3919
vn -0.0633 -0.9795 -0.1913
vn -0.5193 -0.4661 -0.7162
vn -0.4314 -0.8853 -0.1735
vn -0.1528 -0.9801 -0.1264
vn -0.5878 0.0098 -0.8090
vn -0.4300 -0.8970 0.1028
vn -0.1836 -0.9827 -0.0244
vn -0.8158 -0.4827 -0.3186
vn -0.9272 -0.0015 -0.3745
vn -0.5843 0.1056 -0.8046
vn -0.8293 -0.5168 0.2125
vn -0.2651 -0.9056 0.3309
vn -0.1487 -0.9858 0.0783
vn -0.5853 0.0930 -0.8054
vn -0.5162 -0.5422 0.6630
vn -0.5738 0.1409 -0.8068
vn -0.0057 -0.9089 0.4169
vn -0.0618 -0.9878 0.1431
vn -0.9167 0.1028 -0.3861
vn 0.2444 -0.9094 0.3365
vn 0.0424 -0.9885 0.1452
vn -0.9339 0.1100 -0.3401
vn -0.9314 0.1591 -0.3275
vn -0.9619 0.1210 0.2451
vn -0.9703 -0.0259 0.2403
vn -0.9542 0.1120 0.2773
vn -0.6222 -0.0566 0.7808
vn -0.5968 0.1082 0.7950
vn -0.6150 0.1324 0.7773
vn -0.0146 -0.0875 0.9961
vn -0.0069 -0.5517 0.8340
vn 0.4896 -0.5534 0.6738
vn 0.3983 -0.9089 0.1234
vn 0.1250 -0.9885 0.0852
vn 0.4388 -0.8985 -0.0109
vn 0.1552 -0.9878 -0.0145
vn 0.8448 -0.5349 -0.0108
vn 0.7954 -0.5517 0.2511
vn 0.9961 -0.0863 -0.0179
vn 0.9518 -0.0872 0.2941
vn 0.9948 0.1005 -0.0168
vn 0.5852 -0.0984 0.8049
vn 0.9456 0.1013 0.3092
vn 0.0018 0.1018 0.9948
vn 0.5853 0.0974 0.8050
vn -0.0133 0.1287 0.9916
vn 0.5825 0.1243 0.8032
vn 0.9475 0.1243 0.2945
vn 0.9929 0.1183 -0.0111
vn 0.9910 0.1338 -0.0046
vn -0.5744 0.1648 0.8018
vn 0.9418 0.1294 0.3103
vn 0.9991 0.0430 -0.0006
vn -0.9359 0.1733 0.3067
vn 0.0127 0.1423 0.9897
vn -0.5529 0.0356 0.8325
vn -0.9350 0.0263 0.3537
vn 0.5850 0.1246 0.8014
vn 0.0265 0.0449 0.9986
vn 0.5932 0.0489 0.8035
vn 0.9489 0.0481 0.3118
vn 0.5881 -0.0022 0.8088
vn 0.9514 -0.0077 0.3079
vn 0.9998 -0.0180 -0.0092
vn 0.0045 -0.0216 0.9998
vn 0.5873 -0.0012 0.8094
vn 0.9556 -0.0023 0.2946
vn 0.9999 -0.0037 -0.0158
vn 0.9999 0.0136 -0.0092
vn 0.9516 0.0069 0.3071
vn 1.0000 0.0079 -0.0013
vn 0.9502 0.0043 0.3115
vn 0.5878 -0.0001 0.8090
vn 0.0026 0.0043 1.0000
vn -0.0020 0.0069 1.0000
vn -0.5857 0.0126 0.8104
vn -0.0155 -0.0051 0.9999
vn -0.5997 0.0219 0.7999
vn -0.9511 0.0156 0.3086
vn -0.5877 -0.0481 0.8076
vn -0.6253 -0.0098 0.7804
vn -0.9602 0.0326 0.2773
vn -0.9502 0.0101 -0.3116
vn -0.9550 -0.0595 0.2907
vn -0.9746 -0.0113 0.2238
vn -0.9392 0.0306 -0.3419
vn -0.9491 0.0293 -0.3135
vn -0.9370 -0.0539 -0.3453
vn -0.5784 -0.0486 -0.8143
vn -0.9117 -0.0097 -0.4107
vn -0.5876 0.0246 -0.8088
vn -0.5878 -0.0074 -0.8089
vn 0.2964 -0.9113 -0.2857
vn 0.4070 -0.8956 -0.1797
vn 0.1879 -0.9820 -0.0204
vn 0.7344 -0.5335 -0.4196
vn 0.5334 -0.5587 -0.6351
vn 0.8534 -0.0606 -0.5177
vn 0.0315 -0.9233 -0.3827
vn 0.1025 -0.9909 -0.0874
vn 0.6366 -0.0717 -0.7679
vn 0.0159 -0.5642 -0.8255
vn 0.6014 0.1318 -0.7880
vn 0.8261 0.1301 -0.5483
vn 0.0200 -0.1015 -0.9946
vn 0.5866 0.1369 -0.7982
vn 0.8019 0.1301 -0.5832
vn -0.0007 0.1054 -0.9944
vn -0.4859 -0.5628 -0.6687
vn -0.5818 -0.1179 -0.8047
vn -0.2236 -0.9249 -0.3077
vn -0.0122 -0.9956 -0.0930
vn -0.3731 -0.9232 -0.0924
vn -0.0847 -0.9956 -0.0403
vn -0.5884 0.0810 -0.8045
vn -0.7901 -0.5640 -0.2402
vn -0.9511 -0.1101 -0.2885
vn -0.3620 -0.9125 0.1903
vn -0.1121 -0.9919 0.0603
vn -0.7696 -0.5577 0.3110
vn -0.1779 -0.8881 0.4238
vn -0.0721 -0.9831 0.1680
vn -0.4052 -0.5277 0.7466
vn -0.9264 -0.0796 0.3681
vn 0.0948 -0.8574 0.5058
vn 0.0213 -0.9715 0.2362
vn 0.1140 -0.4789 0.8704
vn -0.4856 -0.0490 0.8728
vn 0.1358 -0.0266 0.9904
vn 0.5293 -0.4399 0.7255
vn 0.3244 -0.8388 0.4371
vn 0.1341 -0.9617 0.2389
vn 0.4561 -0.8567 0.2409
vn 0.1933 -0.9614 0.1958
vn 0.5023 -0.8582 0.1055
vn 0.2246 -0.9703 0.0895
vn 0.7892 -0.4835 0.3787
vn 0.8641 -0.4852 0.1335
vn 0.9893 -0.0297 0.1425
vn 0.8980 -0.0293 0.4391
vn 0.5880 -0.0130 0.8088
vn 0.9196 0.1094 0.3774
vn 0.9885 0.1256 0.0838
vn 0.9920 0.1207 0.0361
vn 0.5674 0.0892 0.8186
vn 0.9220 0.1143 0.3699
vn 0.0450 0.1190 0.9919
vn 0.5136 0.0995 0.8523
vn 0.9507 0.1342 0.2797
vn 0.9891 0.1461 -0.0202
vn 0.9921 0.0481 -0.1157
vn 0.5862 0.1129 0.8023
vn 0.9795 0.0639 0.1909
vn 0.9974 0.0245 -0.0685
vn 0.6637 0.0669 0.7450
vn 0.9685 0.0289 0.2472
vn 0.6424 0.0278 0.7658
vn 0.9773 -0.0013 0.2119
vn 0.9941 -0.0014 -0.1086
vn 0.9993 0.0216 -0.0311
vn 0.0517 0.0537 0.9972
vn 0.9601 0.0280 0.2783
vn 1.0000 0.0046 -0.0035
vn 0.9518 0.0092 0.3066
vn 0.6532 0.0019 0.7572
vn 0.6116 0.0299 0.7906
vn 0.5880 0.0143 0.8087
vn 0.0421 0.0045 0.9991
vn 0.0137 0.0202 0.9997
vn -0.0023 0.0115 0.9999
vn 0.0301 0.0187 0.9994
vn -0.5783 0.0019 0.8159
vn -0.5863 0.0063 0.8100
vn -0.5897 0.0039 0.8076
vn -0.5850 0.0070 0.8110
vn -0.9511 -0.0001 0.3090
vn -0.9518 0.0039 -0.3067
vn -0.9505 0.0063 -0.3107
vn -0.5896 0.0115 -0.8076
vn -0.9510 0.0024 0.3091
vn -0.5765 0.0202 -0.8168
vn 0.0004 0.0143 -0.9999
vn -0.9474 0.0019 -0.3201
vn -0.9499 0.0066 -0.3125
vn 0.0301 0.0299 -0.9991
vn 0.5898 0.0092 -0.8075
vn -0.5532 0.0045 -0.8331
vn 0.6131 0.0280 -0.7895
vn 0.8110 0.0046 -0.5850
vn 0.8267 0.0216 -0.5622
vn 0.0825 0.0032 -0.9966
vn 0.6688 -0.0040 -0.7434
vn 0.8652 -0.0088 -0.5013
vn 0.6481 0.0264 -0.7611
vn 0.8370 0.0168 -0.5470
vn 0.8670 0.0789 -0.4920
vn 0.0660 0.0278 -0.9974
vn 0.6776 0.0771 -0.7314
vn 0.8217 0.1107 -0.5590
vn 0.0975 0.0689 -0.9929
vn 0.6045 0.0937 -0.7911
vn 0.0426 0.0843 -0.9955
vn -0.0029 0.1288 -0.9917
vn -0.5414 0.0677 -0.8380
vn -0.5651 0.1234 -0.8158
vn -0.5992 0.1343 -0.7893
vn -0.5627 0.0173 -0.8265
vn -0.9430 0.0680 -0.3256
vn -0.9489 0.0634 0.3091
vn -0.9352 0.1765 -0.3071
vn -0.9509 0.1586 -0.2656
vn -0.5733 0.0545 0.8175
vn -0.9283 0.2023 0.3121
vn -0.5592 0.1606 0.8134
vn -0.0017 0.1079 0.9942
vn -0.0196 0.1107 0.9937
vn -0.9175 0.1626 0.3630
vn -0.5187 0.1441 0.8427
vn -0.9303 0.1020 0.3524
vn -0.5249 0.1272 0.8416
vn -0.9534 0.0793 -0.2911
vn -0.2820 -0.8375 -0.4681
vn -0.2801 -0.9301 -0.2377
vn -0.1776 -0.9549 -0.2381
vn 0.1170 -0.9504 0.2882
vn -0.0000 -0.9668 -0.2555
vn 0.0978 -0.9312 0.3511
vn 0.4533 -0.5459 0.7046
vn -0.0000 -0.9221 0.3869
vn 0.2947 -0.5416 0.7873
vn 0.3571 0.1555 0.9210
vn 0.5487 0.1564 0.8212
vn 0.2834 0.8474 0.4490
vn -0.0000 -0.5354 0.8446
vn 0.1848 0.8413 0.5080
vn -0.0000 0.1603 0.9871
vn -0.2947 -0.5416 0.7873
vn 0.3815 -0.0780 0.9211
vn 0.5935 -0.1003 0.7986
vn -0.0000 0.8469 0.5317
vn 0.1881 -0.8913 0.4126
vn 0.2602 -0.9055 0.3351
vn -0.0000 -0.0490 0.9988
vn 0.3555 -0.3932 0.8479
vn 0.4988 -0.4202 0.7581
vn -0.0000 -0.8868 0.4622
vn -0.0000 -0.3602 0.9329
vn 0.3608 0.0522 0.9312
vn 0.5254 0.0325 0.8503
vn 0.5060 0.3381 0.7935
vn -0.0000 0.0697 0.9976
vn 0.3375 0.3641 0.8680
vn 0.5800 0.5721 0.5800
vn -0.3555 -0.3932 0.8479
vn 0.3176 0.6584 0.6824
vn -0.0000 0.3767 0.9264
vn -0.1881 -0.8913 0.4126
vn -0.2602 -0.9055 0.3351
vn -0.4988 -0.4202 0.7581
vn -0.5934 -0.1003 0.7986
vn -0.3608 0.0522 0.9312
vn -0.5254 0.0325 0.8503
vn -0.5060 0.3381 0.7935
vn -0.3375 0.3641 0.8680
vn -0.5800 0.5721 0.5800
vn -0.3176 0.6584 0.6824
vn -0.0000 0.6950 0.7190
vn -0.0000 0.9275 0.3737
vn -0.3538 0.8659 0.3538
vn 0.3538 0.8659 0.3538
vn -0.0000 1.0000 -0.0000
vn -0.6824 0.6584 0.3176
vn 0.6824 0.6584 0.3176
vn -0.8680 0.3641 0.3375
vn -0.7935 0.3381 0.5060
vn -0.3737 0.9275 -0.0000
vn -0.9312 0.0522 0.3608
vn -0.8503 0.0325 0.5254
vn -0.7581 -0.4202 0.4988
vn -0.8479 -0.3932 0.3555
vn -0.3351 -0.9055 0.2602
vn -0.9974 0.0715 0.0020
vn -0.4116 -0.8926 0.1838
vn -0.7986 -0.1003 0.5934
vn -0.9247 -0.3804 -0.0155
vn -0.9138 -0.0653 0.4008
vn -0.4490 0.8474 0.2834
vn -0.4458 -0.8950 -0.0181
vn -0.9971 -0.0755 -0.0135
vn -0.4964 0.8431 0.2069
vn -0.9087 0.1573 0.3867
vn -0.8212 0.1564 0.5487
vn -0.7046 -0.5459 0.4533
vn -0.5403 0.8413 0.0174
vn -0.7755 -0.5413 0.3248
vn -0.9878 0.1555 0.0114
vn -0.4795 0.8567 -0.1902
vn -0.3415 -0.9314 0.1264
vn -0.2882 -0.9504 0.1170
vn -0.8388 -0.5441 0.0198
vn 0.2469 -0.9566 -0.1550
vn 0.2377 -0.9301 -0.2801
vn 0.5285 -0.8489 -0.0041
vn -0.3527 -0.9348 0.0420
vn 0.3027 -0.9491 0.0870
vn 0.3720 -0.9144 0.1597
vn 0.3586 -0.9301 0.0792
vn -0.2358 -0.9676 -0.0898
vn -0.2647 -0.9292 -0.2580
vn -0.7680 -0.5614 -0.3081
vn -0.7076 -0.5274 -0.4703
vn -0.9160 0.1595 -0.3682
vn -0.8332 0.1551 -0.5308
vn -0.4595 0.8323 -0.3100
vn -0.6758 0.6257 -0.3895
vn -0.9269 -0.1078 -0.3595
vn -0.3730 -0.9147 -0.1554
vn -0.3701 -0.9114 -0.1800
vn -0.7666 -0.4385 -0.4692
vn -0.8456 -0.4087 -0.3435
vn -0.9297 0.0582 -0.3636
vn -0.8504 0.0282 -0.5254
vn -0.7935 0.3381 -0.5060
vn -0.8680 0.3641 -0.3375
vn -0.5800 0.5721 -0.5800
vn -0.9264 0.3767 -0.0000
vn -0.6824 0.6584 -0.3176
vn -0.7190 0.6950 -0.0000
vn -0.3538 0.8659 -0.3538
vn -0.3176 0.6584 -0.6824
vn -0.0000 0.9275 -0.3737
vn -0.3375 0.3641 -0.8680
vn -0.5060 0.3381 -0.7935
vn -0.0000 0.6950 -0.7190
vn -0.3623 0.0530 -0.9305
vn -0.5254 0.0282 -0.8504
vn -0.5003 -0.3874 -0.7744
vn -0.0000 0.3767 -0.9264
vn -0.3448 -0.3856 -0.8558
vn -0.2723 -0.8703 -0.4103
vn -0.0008 0.0714 -0.9975
vn -0.1886 -0.8860 -0.4236
vn -0.2458 -0.6692 -0.7013
vn 0.0061 -0.3657 -0.9307
vn -0.4003 -0.0627 -0.9142
vn 0.0083 -0.8628 -0.5055
vn -0.1711 0.8393 -0.5161
vn -0.2494 0.8275 -0.5031
vn -0.0140 -0.0428 -0.9990
vn 0.1832 -0.9027 -0.3894
vn -0.3469 0.1542 -0.9251
vn -0.4718 0.1419 -0.8702
vn -0.3996 -0.5482 -0.7347
vn -0.0117 0.8030 -0.5959
vn -0.3001 -0.5475 -0.7811
vn -0.1348 -0.9464 -0.2935
vn -0.0110 0.1288 -0.9916
vn 0.1422 0.8455 -0.5148
vn 0.4059 -0.0796 -0.9104
vn -0.6846 -0.7283 0.0298
vn 0.1836 0.8639 -0.4689
vn 0.2176 -0.9140 -0.3424
vn 0.3224 0.1556 -0.9337
vn 0.4326 0.2362 -0.8701
vn 0.4154 -0.4863 -0.7687
vn 0.3415 -0.3977 -0.8516
vn 0.4910 -0.4137 -0.7667
vn 0.3625 0.0561 -0.9303
vn 0.5254 0.0307 -0.8503
vn 0.5060 0.3381 -0.7935
vn 0.3375 0.3641 -0.8680
vn 0.5800 0.5721 -0.5800
vn 0.3176 0.6584 -0.6824
vn 0.3538 0.8659 -0.3538
vn 0.3737 0.9275 -0.0000
vn 0.6824 0.6584 -0.3176
vn 0.7190 0.6950 -0.0000
vn 0.9264 0.3767 -0.0000
vn 0.8680 0.3641 -0.3375
vn 0.7935 0.3381 -0.5060
vn 0.8680 0.3641 0.3375
vn 0.7935 0.3381 0.5060
vn 0.9974 0.0716 0.0007
vn 0.9304 0.0542 -0.3625
vn 0.8504 0.0281 -0.5254
vn 0.7674 -0.4077 -0.4949
vn 0.9312 0.0522 0.3608
vn 0.8503 0.0325 0.5254
vn 0.7581 -0.4202 0.4988
vn 0.8400 -0.4319 -0.3284
vn 0.3445 -0.9241 -0.1656
vn 0.8478 -0.3933 0.3558
vn 0.3351 -0.9055 0.2602
vn 0.9257 -0.3780 -0.0152
vn 0.3061 -0.9461 -0.1056
vn -0.8372 0.5307 0.1320
vn 0.4107 -0.8947 0.1756
vn 0.7980 -0.1003 0.5942
vn 0.3994 -0.9156 -0.0472
vn -0.8949 0.1488 0.4206
vn 0.8986 -0.0472 0.4361
vn -0.6920 -0.0086 0.7219
vn 0.4489 0.8474 0.2835
vn 0.3953 0.9066 -0.1474
vn 0.3912 0.8469 -0.3602
vn 0.4979 0.8632 0.0831
vn 0.4837 0.8428 0.2360
vn 0.9111 0.2165 -0.3507
vn 0.8318 0.1136 -0.5433
vn 0.7237 -0.5506 -0.4161
vn 0.9827 0.1792 0.0466
vn 0.8999 0.1541 0.4080
vn 0.8211 0.1564 0.5489
vn 0.7043 -0.5456 0.4542
vn 0.7893 -0.5367 -0.2983
vn 0.2965 -0.9372 -0.1838
vn 0.8503 -0.5259 0.0219
vn 0.7712 -0.5418 0.3341
vn 0.3056 -0.9467 -0.1018
vn -0.3153 -0.9422 0.1136
vn 0.3877 -0.9215 0.0251
vn -0.3272 -0.9323 0.1540
vn -0.5367 -0.8435 0.0210
vn -0.2730 -0.9595 0.0694
vn 0.3401 -0.9313 0.1307
vn 0.2870 -0.9506 0.1178
vn -0.2465 -0.9573 -0.1513
vn -0.2381 -0.9300 -0.2800
vn 0.2820 -0.8375 -0.4681
vn 0.1776 -0.9549 -0.2381
vn 0.2801 -0.9301 -0.2377
vn -0.1170 -0.9504 0.2882
vn -0.0978 -0.9312 0.3512
vn -0.4533 -0.5459 0.7046
vn -0.3571 0.1555 0.9210
vn -0.5487 0.1564 0.8212
vn -0.2834 0.8474 0.4490
vn -0.1848 0.8413 0.5080
vn -0.3815 -0.0780 0.9211
vn 0.2780 -0.5551 -0.7840
vn 0.1794 -0.9274 -0.3282
vn 0.0706 -0.9536 -0.2927
vn -0.1722 -0.9428 0.2854
vn -0.0151 -0.5459 -0.8377
vn -0.0251 -0.9250 -0.3791
vn -0.1098 -0.9367 -0.3323
vn -0.0421 -0.9657 0.2563
vn -0.1855 -0.9350 0.3023
vn -0.0100 -0.8611 0.5083
vn 0.1496 -0.9547 0.2573
vn 0.1994 -0.9451 0.2590
vt 0.947754 0.690918
vt 0.976074 0.691406
vt 0.976074 0.690918
vt 0.947754 0.691406
vt 0.918945 0.690918
vt 0.976074 0.691895
vt 0.918945 0.691406
vt 0.890137 0.690918
vt 0.947754 0.691895
vt 0.947754 0.692383
vt 0.976074 0.692383
vt 0.918945 0.691895
vt 0.976074 0.692871
vt 0.918945 0.692383
vt 0.947754 0.692871
vt 0.947754 0.693359
vt 0.976074 0.693359
vt 0.918945 0.692871
vt 0.947754 0.693848
vt 0.976074 0.693848
vt 0.976074 0.694336
vt 0.918945 0.693359
vt 0.918945 0.693848
vt 0.947754 0.694336
vt 0.976074 0.797363
vt 0.890137 0.693848
vt 0.947754 0.797363
vt 0.890137 0.693359
vt 0.918945 0.694336
vt 0.890137 0.692871
vt 0.861328 0.693359
vt 0.890137 0.692383
vt 0.861328 0.692871
vt 0.861328 0.692383
vt 0.832520 0.692871
vt 0.890137 0.691895
vt 0.890137 0.691406
vt 0.861328 0.691895
vt 0.861328 0.691406
vt 0.861328 0.690918
vt 0.832520 0.691895
vt 0.832520 0.691406
vt 0.832520 0.690918
vt 0.832520 0.692383
vt 0.803711 0.691406
vt 0.803711 0.690918
vt 0.803711 0.691895
vt 0.775391 0.691406
vt 0.775391 0.690918
vt 0.775391 0.691895
vt 0.803711 0.692383
vt 0.746582 0.691406
vt 0.746582 0.690918
vt 0.717773 0.690918
vt 0.746582 0.691895
vt 0.717773 0.691406
vt 0.688965 0.690918
vt 0.688965 0.691406
vt 0.717773 0.691895
vt 0.688965 0.691895
vt 0.688965 0.692383
vt 0.717773 0.692383
vt 0.775391 0.692383
vt 0.746582 0.692383
vt 0.717773 0.692871
vt 0.688965 0.692871
vt 0.688965 0.693359
vt 0.746582 0.692871
vt 0.717773 0.693359
vt 0.688965 0.693848
vt 0.717773 0.693848
vt 0.688965 0.694336
vt 0.803711 0.692871
vt 0.775391 0.692871
vt 0.832520 0.693359
vt 0.803711 0.693359
vt 0.775391 0.693359
vt 0.746582 0.693359
vt 0.746582 0.693848
vt 0.803711 0.693848
vt 0.717773 0.694336
vt 0.775391 0.693848
vt 0.746582 0.694336
vt 0.717773 0.797363
vt 0.688965 0.797363
vt 0.775391 0.694336
vt 0.717773 0.903320
vt 0.688965 0.903320
vt 0.710449 0.956543
vt 0.746582 0.797363
vt 0.775391 0.797363
vt 0.746582 0.903320
vt 0.739258 0.956543
vt 0.775391 0.903320
vt 0.768066 0.956543
vt 0.803711 0.694336
vt 0.803711 0.797363
vt 0.803711 0.903320
vt 0.796875 0.956543
vt 0.832520 0.693848
vt 0.832520 0.694336
vt 0.861328 0.693848
vt 0.832520 0.797363
vt 0.890137 0.694336
vt 0.832520 0.903320
vt 0.825684 0.956543
vt 0.861328 0.903320
vt 0.854004 0.956543
vt 0.861328 0.797363
vt 0.890137 0.903320
vt 0.882812 0.956543
vt 0.861328 0.694336
vt 0.890137 0.797363
vt 0.918945 0.903320
vt 0.911621 0.956543
vt 0.918945 0.797363
vt 0.947754 0.903320
vt 0.940430 0.956543
vt 0.976074 0.903320
vt 0.969238 0.956543
vt 0.982910 0.438721
vt 0.986816 0.380371
vt 0.977539 0.437012
vt 0.971680 0.374756
vt 0.975098 0.497070
vt 0.962402 0.435059
vt 0.949219 0.368164
vt 0.959961 0.496826
vt 0.941406 0.432617
vt 0.924316 0.430664
vt 0.931152 0.365234
vt 0.918945 0.364502
vt 0.938477 0.496826
vt 0.913086 0.429688
vt 0.921875 0.496582
vt 0.940430 0.561035
vt 0.895508 0.428467
vt 0.900879 0.364502
vt 0.911133 0.496582
vt 0.877930 0.426758
vt 0.882324 0.360107
vt 0.894043 0.496582
vt 0.827637 0.422607
vt 0.828125 0.349121
vt 0.876465 0.496582
vt 0.828613 0.496338
vt 0.770508 0.419189
vt 0.762695 0.345947
vt 0.693359 0.354736
vt 0.773926 0.496338
vt 0.706543 0.422852
vt 0.633789 0.370361
vt 0.827148 0.570312
vt 0.642090 0.427490
vt 0.709473 0.496338
vt 0.876953 0.566406
vt 0.881836 0.632812
vt 0.827637 0.644043
vt 0.899902 0.628906
vt 0.770020 0.573730
vt 0.762695 0.646973
vt 0.693359 0.638184
vt 0.706055 0.569824
vt 0.633789 0.622559
vt 0.642090 0.565430
vt 0.644043 0.496338
vt 0.576660 0.496338
vt 0.575684 0.564453
vt 0.575684 0.428467
vt 0.507812 0.496338
vt 0.576660 0.630859
vt 0.576660 0.362305
vt 0.581055 0.695312
vt 0.649414 0.682129
vt 0.507812 0.565430
vt 0.584961 0.759277
vt 0.658203 0.751465
vt 0.654785 0.816895
vt 0.581543 0.816406
vt 0.644043 0.871094
vt 0.507812 0.762695
vt 0.577148 0.866699
vt 0.639648 0.889648
vt 0.507812 0.817383
vt 0.575684 0.884766
vt 0.639648 0.908203
vt 0.507324 0.865234
vt 0.507812 0.882812
vt 0.574219 0.901855
vt 0.573242 0.913086
vt 0.639160 0.919922
vt 0.635742 0.937988
vt 0.507812 0.899902
vt 0.571777 0.930176
vt 0.507324 0.910645
vt 0.440918 0.901367
vt 0.568848 0.951172
vt 0.629395 0.960449
vt 0.507324 0.927734
vt 0.566895 0.966309
vt 0.624023 0.975586
vt 0.507324 0.971680
vt 0.507324 0.948730
vt 0.506836 0.963867
vt 0.447021 0.965332
vt 0.391357 0.974121
vt 0.445557 0.950195
vt 0.385986 0.959473
vt 0.443359 0.929199
vt 0.379150 0.937500
vt 0.441650 0.912109
vt 0.375732 0.919434
vt 0.375244 0.907227
vt 0.375244 0.888672
vt 0.439453 0.883789
vt 0.437744 0.865723
vt 0.371094 0.870605
vt 0.360107 0.816895
vt 0.433838 0.815918
vt 0.430420 0.758789
vt 0.357178 0.751465
vt 0.365967 0.682129
vt 0.434082 0.695312
vt 0.381348 0.622559
vt 0.507812 0.698242
vt 0.438721 0.630859
vt 0.507812 0.632812
vt 0.439453 0.564453
vt 0.373291 0.565430
vt 0.438477 0.496338
vt 0.308838 0.569824
vt 0.321777 0.638184
vt 0.371094 0.496582
vt 0.244873 0.573730
vt 0.252441 0.646973
vt 0.187012 0.644043
vt 0.305664 0.496582
vt 0.187500 0.570312
vt 0.132812 0.632812
vt 0.241333 0.496582
vt 0.137573 0.565918
vt 0.114319 0.628418
vt 0.186768 0.496582
vt 0.119568 0.564453
vt 0.138672 0.496338
vt 0.102112 0.562988
vt 0.096069 0.628418
vt 0.121338 0.496338
vt 0.138184 0.426514
vt 0.091003 0.562012
vt 0.084167 0.627930
vt 0.065857 0.624512
vt 0.104309 0.496338
vt 0.074036 0.560547
vt 0.043518 0.618164
vt 0.093384 0.496338
vt 0.102905 0.429688
vt 0.120300 0.428223
vt 0.115356 0.364014
vt 0.096680 0.364014
vt 0.133545 0.359863
vt 0.091919 0.430664
vt 0.084717 0.364502
vt 0.066589 0.367920
vt 0.187988 0.422607
vt 0.187378 0.348877
vt 0.244995 0.419189
vt 0.252686 0.345947
vt 0.321777 0.354736
vt 0.309082 0.422852
vt 0.381348 0.370117
vt 0.373291 0.427490
vt 0.439697 0.428467
vt 0.507812 0.427246
vt 0.438721 0.362061
vt 0.507812 0.360107
vt 0.507812 0.294434
vt 0.434082 0.297607
vt 0.365967 0.310547
vt 0.581055 0.297852
vt 0.649414 0.310791
vt 0.507812 0.230103
vt 0.430420 0.233643
vt 0.357178 0.241211
vt 0.360352 0.175903
vt 0.584961 0.233887
vt 0.658203 0.241455
vt 0.655273 0.176270
vt 0.433838 0.176392
vt 0.371338 0.121643
vt 0.581543 0.176758
vt 0.644043 0.122375
vt 0.507812 0.175659
vt 0.437988 0.126343
vt 0.375732 0.103149
vt 0.577637 0.126953
vt 0.640137 0.104187
vt 0.507812 0.127441
vt 0.439453 0.108337
vt 0.575684 0.109131
vt 0.507812 0.110107
vt 0.640137 0.085510
vt 0.440918 0.090881
vt 0.375732 0.084900
vt 0.507812 0.093140
vt 0.574219 0.091736
vt 0.441895 0.079834
vt 0.376221 0.072998
vt 0.379395 0.054688
vt 0.507812 0.082214
vt 0.573730 0.080750
vt 0.639648 0.073486
vt 0.636230 0.055389
vt 0.443604 0.062866
vt 0.385986 0.032349
vt 0.507812 0.065369
vt 0.571777 0.063782
vt 0.446289 0.041534
vt 0.391357 0.017502
vt 0.508301 0.044067
vt 0.448242 0.026505
vt 0.507812 0.020996
vt 0.508301 0.029022
vt 0.569824 0.042572
vt 0.629395 0.033539
vt 0.568359 0.027618
vt 0.624023 0.018982
vt 0.983887 0.583984
vt 0.976562 0.557129
vt 0.984863 0.612793
vt 0.970703 0.618164
vt 0.961426 0.558594
vt 0.948730 0.625000
vt 0.923340 0.562500
vt 0.930664 0.628418
vt 0.918457 0.628906
vt 0.912109 0.563477
vt 0.895020 0.564941
vt 0.075012 0.432129
vt 0.044708 0.374756
vt 0.053772 0.434326
vt 0.030151 0.380127
vt 0.076538 0.496094
vt 0.055267 0.496094
vt 0.052704 0.557617
vt 0.040192 0.495850
vt 0.038788 0.435791
vt 0.032166 0.496094
vt 0.037689 0.556152
vt 0.028687 0.612793
s 1
usemtl M_Extnd05_Object_05001_Body_L_Inst
f 1/1/1 2/2/2 3/3/3
f 2/2/2 1/1/1 4/4/4
f 5/5/5 4/4/4 1/1/1
f 4/4/4 6/6/6 2/2/2
f 4/4/4 5/5/5 7/7/7
f 8/8/8 7/7/7 5/5/5
f 6/6/6 4/4/4 9/9/9
f 7/7/7 9/9/9 4/4/4
f 10/10/10 6/6/6 9/9/9
f 6/6/6 10/10/10 11/11/11
f 10/10/10 12/11/12 11/11/11
f 9/9/9 7/7/7 13/12/13
f 12/11/12 10/10/10 14/10/14
f 14/10/14 15/13/15 12/11/12
f 9/9/9 16/14/16 10/10/10
f 16/14/16 14/10/14 10/10/10
f 16/14/16 9/9/9 13/12/13
f 15/13/15 14/10/14 17/15/17
f 14/10/14 16/14/16 18/14/18
f 18/14/18 17/15/17 14/10/14
f 19/16/19 15/13/15 17/15/17
f 15/13/15 19/16/19 20/17/20
f 17/15/17 18/14/18 21/18/21
f 22/19/22 20/17/20 19/16/19
f 20/17/20 22/19/22 23/20/23
f 22/19/22 24/21/24 23/20/23
f 17/15/17 25/22/25 19/16/19
f 25/22/25 17/15/17 21/18/21
f 19/16/19 26/23/26 22/19/22
f 26/23/26 19/16/19 25/22/25
f 24/21/24 22/19/22 27/24/27
f 26/23/26 27/24/27 22/19/22
f 27/24/27 28/25/28 24/21/24
f 25/22/25 29/26/29 26/23/26
f 27/24/27 30/27/30 28/25/28
f 21/18/21 31/28/31 25/22/25
f 31/28/31 29/26/29 25/22/25
f 27/24/27 26/23/26 32/29/32
f 29/26/29 32/29/32 26/23/26
f 33/30/33 31/28/31 21/18/21
f 18/14/18 33/30/33 21/18/21
f 34/31/34 29/26/29 31/28/31
f 33/30/33 34/31/34 31/28/31
f 33/30/33 18/14/18 35/32/35
f 16/14/16 35/32/35 18/14/18
f 36/33/36 34/31/34 33/30/33
f 35/32/35 36/33/36 33/30/33
f 37/32/37 35/32/35 16/14/16
f 13/12/13 37/32/37 16/14/16
f 38/34/38 36/33/36 35/32/35
f 37/32/37 38/34/38 35/32/35
f 39/35/39 34/31/34 36/33/36
f 36/33/36 38/34/38 39/35/39
f 37/32/37 13/12/13 40/36/40
f 13/12/13 41/37/41 40/36/40
f 41/37/41 13/12/13 7/7/7
f 7/7/7 8/8/8 41/37/41
f 42/38/42 37/32/37 40/36/40
f 41/37/41 42/38/42 40/36/40
f 8/8/8 43/39/43 41/37/41
f 43/39/43 42/38/42 41/37/41
f 43/39/43 8/8/8 44/40/44
f 37/32/37 42/38/42 45/34/45
f 38/34/38 37/32/37 45/34/45
f 42/38/42 43/39/43 46/41/46
f 46/41/46 45/34/45 42/38/42
f 43/39/43 44/40/44 47/42/47
f 47/42/47 46/41/46 43/39/43
f 48/43/48 47/42/47 44/40/44
f 38/34/38 45/34/45 49/44/49
f 49/44/49 39/35/39 38/34/38
f 47/42/47 48/43/48 50/45/50
f 51/46/51 50/45/50 48/43/48
f 46/41/46 47/42/47 52/47/52
f 50/45/50 52/47/52 47/42/47
f 45/34/45 46/41/46 53/44/53
f 52/47/52 53/44/53 46/41/46
f 53/44/53 49/44/49 45/34/45
f 50/45/50 51/46/51 54/48/54
f 55/49/55 54/48/54 51/46/51
f 52/47/52 50/45/50 56/50/56
f 54/48/54 56/50/56 50/45/50
f 53/44/53 52/47/52 57/51/57
f 56/50/56 57/51/57 52/47/52
f 54/48/54 55/49/55 58/52/58
f 58/52/58 55/49/55 59/53/58
f 60/54/59 58/52/58 59/53/58
f 56/50/56 54/48/54 61/55/58
f 61/55/58 54/48/54 58/52/58
f 58/52/58 60/54/59 62/56/60
f 62/56/60 61/55/58 58/52/58
f 63/57/61 62/56/60 60/54/59
f 62/56/60 63/57/61 64/58/62
f 64/58/62 65/59/63 62/56/60
f 61/55/58 62/56/60 65/59/63
f 65/59/63 64/58/62 66/60/64
f 67/61/65 65/59/63 66/60/64
f 68/62/66 61/55/58 65/59/63
f 65/59/63 67/61/65 68/62/66
f 61/55/58 69/63/67 56/50/56
f 57/51/57 56/50/56 69/63/67
f 70/64/68 61/55/58 68/62/66
f 69/63/67 61/55/58 70/64/68
f 67/61/65 71/62/69 68/62/66
f 71/62/69 67/61/65 72/61/70
f 68/62/66 73/64/71 70/64/68
f 73/64/71 69/63/67 70/64/68
f 73/64/71 68/62/66 71/62/69
f 69/63/67 74/63/72 57/51/57
f 74/63/72 69/63/67 73/64/71
f 72/61/70 75/65/73 71/62/69
f 75/65/73 72/61/70 76/66/74
f 77/67/75 75/65/73 76/66/74
f 71/62/69 78/68/76 73/64/71
f 78/68/76 71/62/69 75/65/73
f 78/68/76 74/63/72 73/64/71
f 75/65/73 77/67/75 79/69/77
f 79/69/77 78/68/76 75/65/73
f 80/70/78 79/69/77 77/67/75
f 81/51/79 57/51/57 74/63/72
f 57/51/57 81/51/79 53/44/53
f 49/44/49 53/44/53 81/51/79
f 79/69/77 80/70/78 82/71/80
f 83/72/81 82/71/80 80/70/78
f 81/51/79 84/73/82 49/44/49
f 39/35/39 49/44/49 84/73/82
f 74/63/72 85/74/83 81/51/79
f 84/73/82 81/51/79 85/74/83
f 85/74/83 74/63/72 78/68/76
f 84/73/82 86/75/84 39/35/39
f 34/31/34 39/35/39 86/75/84
f 85/74/83 87/76/85 84/73/82
f 86/75/84 84/73/82 87/76/85
f 78/68/76 88/77/86 85/74/83
f 87/76/85 85/74/83 88/77/86
f 89/78/87 78/68/76 79/69/77
f 88/77/86 78/68/76 89/78/87
f 82/71/80 89/78/87 79/69/77
f 90/79/88 88/77/86 89/78/87
f 90/79/88 89/78/87 82/71/80
f 88/77/86 91/80/89 87/76/85
f 92/81/90 90/79/88 82/71/80
f 82/71/80 83/72/81 92/81/90
f 93/82/91 88/77/86 90/79/88
f 91/80/89 88/77/86 93/82/91
f 94/83/92 90/79/88 92/81/90
f 93/82/91 90/79/88 94/83/92
f 83/72/81 95/84/93 92/81/90
f 95/84/93 94/83/92 92/81/90
f 83/72/81 96/85/94 95/84/93
f 97/86/95 93/82/91 94/83/92
f 96/85/94 98/87/96 95/84/93
f 98/87/96 96/85/94 99/88/97
f 98/87/96 99/88/97 100/89/98
f 94/83/92 95/84/93 101/90/99
f 98/87/96 101/90/99 95/84/93
f 102/91/100 97/86/95 94/83/92
f 101/90/99 102/91/100 94/83/92
f 101/90/99 98/87/96 103/92/101
f 103/92/101 98/87/96 104/93/102
f 103/92/101 102/91/100 101/90/99
f 105/94/103 103/92/101 106/95/104
f 102/91/100 103/92/101 105/94/103
f 107/96/105 93/82/91 97/86/95
f 102/91/100 107/96/105 97/86/95
f 93/82/91 107/96/105 91/80/89
f 105/94/103 108/97/106 102/91/100
f 107/96/105 102/91/100 108/97/106
f 109/98/107 105/94/103 110/99/108
f 108/97/106 105/94/103 109/98/107
f 91/80/89 107/96/105 111/100/109
f 111/100/109 87/76/85 91/80/89
f 87/76/85 111/100/109 86/75/84
f 108/97/106 112/101/110 107/96/105
f 112/101/110 111/100/109 107/96/105
f 113/102/111 86/75/84 111/100/109
f 111/100/109 112/101/110 113/102/111
f 86/75/84 113/102/111 34/31/34
f 29/26/29 34/31/34 113/102/111
f 112/101/110 108/97/106 114/103/112
f 109/98/107 114/103/112 108/97/106
f 113/102/111 115/104/113 29/26/29
f 32/29/32 29/26/29 115/104/113
f 116/105/114 109/98/107 117/106/115
f 114/103/112 109/98/107 116/105/114
f 118/107/116 116/105/114 119/108/117
f 118/107/116 114/103/112 116/105/114
f 118/107/116 120/109/118 114/103/112
f 120/109/118 112/101/110 114/103/112
f 121/110/119 118/107/116 122/111/120
f 120/109/118 118/107/116 121/110/119
f 123/112/121 113/102/111 112/101/110
f 123/112/121 112/101/110 120/109/118
f 115/104/113 113/102/111 123/112/121
f 124/113/122 123/112/121 120/109/118
f 123/112/121 124/113/122 115/104/113
f 120/109/118 121/110/119 124/113/122
f 125/114/123 121/110/119 126/115/124
f 125/114/123 124/113/122 121/110/119
f 127/116/125 115/104/113 124/113/122
f 127/116/125 124/113/122 125/114/123
f 115/104/113 127/116/125 32/29/32
f 127/116/125 27/24/27 32/29/32
f 27/24/27 127/116/125 30/27/30
f 128/117/126 127/116/125 125/114/123
f 128/117/126 30/27/30 127/116/125
f 128/117/126 125/114/123 129/118/127
f 128/117/126 28/25/28 30/27/30
f 28/25/28 128/117/126 130/119/128
f 130/119/128 128/117/126 131/120/129
f 132/58/130 133/54/131 134/57/130
f 133/54/131 132/58/130 135/56/132
f 135/56/132 136/53/133 133/54/131
f 137/60/130 135/56/132 132/58/130
f 138/52/134 136/53/133 135/56/132
f 138/52/134 139/49/135 136/53/133
f 135/56/132 137/60/130 140/59/136
f 140/59/136 138/52/134 135/56/132
f 141/48/137 139/49/135 138/52/134
f 139/49/135 141/48/137 142/46/138
f 143/55/139 138/52/134 140/59/136
f 141/48/137 138/52/134 143/55/139
f 137/60/130 144/62/140 140/59/136
f 144/62/140 137/60/130 145/61/141
f 146/45/142 142/46/138 141/48/137
f 142/46/138 146/45/142 147/43/143
f 141/48/137 148/50/144 146/45/142
f 148/50/144 141/48/137 143/55/139
f 149/42/145 147/43/143 146/45/142
f 150/47/146 146/45/142 148/50/144
f 146/45/142 150/47/146 149/42/145
f 143/55/139 151/63/147 148/50/144
f 152/39/148 147/43/143 149/42/145
f 147/43/143 152/39/148 153/40/149
f 140/59/136 154/64/150 143/55/139
f 151/63/147 143/55/139 154/64/150
f 154/64/150 140/59/136 144/62/140
f 155/51/151 148/50/144 151/63/147
f 148/50/144 155/51/151 150/47/146
f 154/64/150 156/63/152 151/63/147
f 144/62/140 157/64/153 154/64/150
f 156/63/152 154/64/150 157/64/153
f 151/63/147 158/51/154 155/51/151
f 158/51/154 151/63/147 156/63/152
f 159/44/155 150/47/146 155/51/151
f 160/44/156 155/51/151 158/51/154
f 155/51/151 160/44/156 159/44/155
f 150/47/146 159/44/155 161/41/157
f 161/41/157 149/42/145 150/47/146
f 162/34/158 161/41/157 159/44/155
f 159/44/155 160/44/156 162/34/158
f 163/38/159 149/42/145 161/41/157
f 161/41/157 162/34/158 163/38/159
f 149/42/145 163/38/159 152/39/148
f 163/38/159 162/34/158 164/36/160
f 164/36/160 152/39/148 163/38/159
f 165/34/161 162/34/158 160/44/156
f 152/39/148 164/36/160 166/37/162
f 166/37/162 153/40/149 152/39/148
f 153/40/149 166/37/162 167/8/163
f 164/36/160 162/34/158 168/32/164
f 162/34/158 165/34/161 168/32/164
f 169/12/165 166/37/162 164/36/160
f 164/36/160 168/32/164 169/12/165
f 170/7/166 167/8/163 166/37/162
f 166/37/162 169/12/165 170/7/166
f 167/8/163 170/7/166 171/5/167
f 169/12/165 168/32/164 172/14/168
f 173/4/169 171/5/167 170/7/166
f 171/5/167 173/4/169 174/1/170
f 175/9/171 170/7/166 169/12/165
f 170/7/166 175/9/171 173/4/169
f 172/14/168 175/9/171 169/12/165
f 176/2/172 174/1/170 173/4/169
f 174/1/170 176/2/172 177/3/172
f 173/4/169 178/6/172 176/2/172
f 178/6/172 173/4/169 175/9/171
f 179/10/173 178/6/172 175/9/171
f 175/9/171 172/14/168 179/10/173
f 178/6/172 179/10/173 180/11/174
f 168/32/164 181/32/175 172/14/168
f 168/32/164 165/34/161 181/32/175
f 182/14/176 179/10/173 172/14/168
f 172/14/168 181/32/175 182/14/176
f 183/10/177 180/11/174 179/10/173
f 179/10/173 182/14/176 183/10/177
f 180/11/174 183/10/177 184/11/178
f 185/15/179 184/11/178 183/10/177
f 182/14/176 185/15/179 183/10/177
f 184/11/178 185/15/179 186/13/180
f 181/32/175 187/30/181 182/14/176
f 165/34/161 187/30/181 181/32/175
f 185/15/179 182/14/176 188/18/182
f 182/14/176 187/30/181 188/18/182
f 189/16/183 186/13/180 185/15/179
f 188/18/182 189/16/183 185/15/179
f 186/13/180 189/16/183 190/17/184
f 189/16/183 191/20/185 190/17/184
f 191/20/185 189/16/183 192/19/186
f 192/19/186 193/21/187 191/20/185
f 189/16/183 188/18/182 194/22/188
f 194/22/188 192/19/186 189/16/183
f 193/21/187 192/19/186 195/24/189
f 195/24/189 196/25/28 193/21/187
f 192/19/186 194/22/188 197/23/190
f 197/23/190 195/24/189 192/19/186
f 188/18/182 198/28/191 194/22/188
f 187/30/181 198/28/191 188/18/182
f 194/22/188 199/26/192 197/23/190
f 198/28/191 199/26/192 194/22/188
f 195/24/189 197/23/190 200/29/193
f 199/26/192 200/29/193 197/23/190
f 201/33/194 198/28/191 187/30/181
f 187/30/181 165/34/161 201/33/194
f 198/28/191 202/102/195 199/26/192
f 201/33/194 165/34/161 203/35/196
f 160/44/156 203/35/196 165/34/161
f 158/51/154 203/35/196 160/44/156
f 198/28/191 201/33/194 204/31/197
f 204/31/197 202/102/195 198/28/191
f 203/35/196 158/51/154 205/73/198
f 156/63/152 205/73/198 158/51/154
f 203/35/196 206/75/199 201/33/194
f 204/31/197 201/33/194 206/75/199
f 205/73/198 206/75/199 203/35/196
f 206/75/199 207/100/200 204/31/197
f 202/102/195 204/31/197 207/100/200
f 206/75/199 205/73/198 208/76/201
f 205/73/198 156/63/152 209/74/202
f 209/74/202 208/76/201 205/73/198
f 157/64/153 209/74/202 156/63/152
f 208/76/201 210/80/203 206/75/199
f 207/100/200 206/75/199 210/80/203
f 208/76/201 209/74/202 211/77/204
f 211/77/204 210/80/203 208/76/201
f 209/74/202 157/64/153 212/68/205
f 211/77/204 209/74/202 213/78/206
f 213/78/206 209/74/202 212/68/205
f 210/80/203 211/77/204 214/82/207
f 215/62/208 212/68/205 157/64/153
f 157/64/153 144/62/140 215/62/208
f 145/61/141 215/62/208 144/62/140
f 215/62/208 145/61/141 216/61/209
f 217/66/210 215/62/208 216/61/209
f 212/68/205 215/62/208 218/65/211
f 215/62/208 217/66/210 218/65/211
f 218/65/211 213/78/206 212/68/205
f 219/67/212 218/65/211 217/66/210
f 213/78/206 218/65/211 220/69/213
f 218/65/211 219/67/212 220/69/213
f 221/79/214 211/77/204 213/78/206
f 220/69/213 221/79/214 213/78/206
f 214/82/207 211/77/204 221/79/214
f 219/67/212 222/71/215 220/69/213
f 221/79/214 220/69/213 222/71/215
f 222/71/215 219/67/212 223/70/216
f 224/72/217 222/71/215 223/70/216
f 225/81/218 221/79/214 222/71/215
f 222/71/215 224/72/217 225/81/218
f 226/83/219 221/79/214 225/81/218
f 214/82/207 221/79/214 226/83/219
f 224/72/217 227/84/220 225/81/218
f 227/84/220 226/83/219 225/81/218
f 224/72/217 228/85/94 227/84/220
f 229/86/221 214/82/207 226/83/219
f 228/85/94 230/87/222 227/84/220
f 230/87/222 228/85/94 231/88/223
f 230/87/222 231/88/223 232/89/224
f 226/83/219 227/84/220 233/90/225
f 230/87/222 233/90/225 227/84/220
f 234/91/226 229/86/221 226/83/219
f 233/90/225 234/91/226 226/83/219
f 233/90/225 230/87/222 235/92/227
f 235/92/227 230/87/222 236/93/228
f 235/92/227 234/91/226 233/90/225
f 237/94/229 235/92/227 238/95/230
f 234/91/226 235/92/227 237/94/229
f 239/96/231 214/82/207 229/86/221
f 234/91/226 239/96/231 229/86/221
f 214/82/207 239/96/231 210/80/203
f 210/80/203 239/96/231 207/100/200
f 237/94/229 240/97/232 234/91/226
f 239/96/231 234/91/226 240/97/232
f 241/98/233 237/94/229 242/99/234
f 240/97/232 237/94/229 241/98/233
f 243/101/235 207/100/200 239/96/231
f 240/97/232 243/101/235 239/96/231
f 207/100/200 243/101/235 202/102/195
f 241/98/233 244/103/236 240/97/232
f 243/101/235 240/97/232 244/103/236
f 245/105/237 241/98/233 246/106/238
f 244/103/236 241/98/233 245/105/237
f 247/107/239 245/105/237 248/108/240
f 247/107/239 244/103/236 245/105/237
f 249/109/241 243/101/235 244/103/236
f 247/107/239 249/109/241 244/103/236
f 250/112/242 202/102/195 243/101/235
f 250/112/242 243/101/235 249/109/241
f 251/110/243 247/107/239 252/111/244
f 249/109/241 247/107/239 251/110/243
f 253/104/245 202/102/195 250/112/242
f 202/102/195 253/104/245 199/26/192
f 200/29/193 199/26/192 253/104/245
f 254/113/246 250/112/242 249/109/241
f 250/112/242 254/113/246 253/104/245
f 249/109/241 251/110/243 254/113/246
f 253/104/245 255/116/247 200/29/193
f 255/116/247 253/104/245 254/113/246
f 255/116/247 195/24/189 200/29/193
f 256/114/248 254/113/246 251/110/243
f 256/114/248 251/110/243 257/115/249
f 255/116/247 254/113/246 256/114/248
f 195/24/189 255/116/247 258/27/250
f 195/24/189 258/27/250 196/25/28
f 259/117/251 255/116/247 256/114/248
f 259/117/251 258/27/250 255/116/247
f 259/117/251 196/25/28 258/27/250
f 259/117/251 256/114/248 260/118/252
f 196/25/28 259/117/251 261/119/253
f 261/119/253 259/117/251 262/120/254
f 263/58/255 264/54/256 265/57/257
f 264/54/256 263/58/255 266/56/258
f 266/56/258 267/53/259 264/54/256
f 268/60/260 266/56/258 263/58/255
f 269/52/261 267/53/259 266/56/258
f 269/52/261 270/49/262 267/53/259
f 266/56/258 268/60/260 271/59/263
f 271/59/263 269/52/261 266/56/258
f 268/60/260 272/62/264 271/59/263
f 272/62/264 268/60/260 273/61/265
f 274/55/266 269/52/261 271/59/263
f 273/61/265 275/62/267 272/62/264
f 275/62/267 273/61/265 276/61/268
f 277/66/269 275/62/267 276/61/268
f 278/64/270 271/59/263 272/62/264
f 271/59/263 278/64/270 274/55/266
f 279/64/271 272/62/264 275/62/267
f 272/62/264 279/64/271 278/64/270
f 275/62/267 277/66/269 280/65/272
f 281/67/273 280/65/272 277/66/269
f 275/62/267 282/68/274 279/64/271
f 282/68/274 275/62/267 280/65/272
f 283/63/275 278/64/270 279/64/271
f 282/68/274 283/63/275 279/64/271
f 280/65/272 281/67/273 284/69/276
f 280/65/272 285/78/277 282/68/274
f 285/78/277 280/65/272 284/69/276
f 281/67/273 286/71/278 284/69/276
f 286/71/278 281/67/273 287/70/279
f 288/72/280 286/71/278 287/70/279
f 284/69/276 289/79/281 285/78/277
f 289/79/281 284/69/276 286/71/278
f 286/71/278 288/72/280 290/81/282
f 286/71/278 291/83/283 289/79/281
f 291/83/283 286/71/278 290/81/282
f 288/72/280 292/84/284 290/81/282
f 292/84/284 291/83/283 290/81/282
f 288/72/280 293/85/285 292/84/284
f 294/88/286 292/84/284 293/85/285
f 295/87/287 294/88/286 296/89/288
f 292/84/284 294/88/286 295/87/287
f 295/87/287 297/90/289 292/84/284
f 291/83/283 292/84/284 297/90/289
f 298/92/290 295/87/287 299/93/291
f 297/90/289 295/87/287 298/92/290
f 300/94/292 298/92/290 301/95/293
f 298/92/290 302/91/294 297/90/289
f 302/91/294 298/92/290 300/94/292
f 297/90/289 302/91/294 291/83/283
f 303/98/295 300/94/292 304/99/296
f 303/98/295 302/91/294 300/94/292
f 302/91/294 305/86/297 291/83/283
f 306/105/298 303/98/295 307/106/299
f 302/91/294 303/98/295 308/97/300
f 306/105/298 308/97/300 303/98/295
f 302/91/294 309/96/301 305/86/297
f 309/96/301 302/91/294 308/97/300
f 305/86/297 310/82/302 291/83/283
f 309/96/301 310/82/302 305/86/297
f 291/83/283 310/82/302 289/79/281
f 310/82/302 285/78/277 289/79/281
f 311/103/303 309/96/301 308/97/300
f 311/103/303 308/97/300 306/105/298
f 312/107/304 306/105/298 313/108/305
f 311/103/303 306/105/298 312/107/304
f 285/78/277 310/82/302 314/77/306
f 312/107/304 315/109/307 311/103/303
f 314/77/306 316/74/308 285/78/277
f 285/78/277 316/74/308 282/68/274
f 316/74/308 283/63/275 282/68/274
f 317/110/309 312/107/304 318/111/310
f 317/110/309 315/109/307 312/107/304
f 319/76/311 316/74/308 314/77/306
f 314/77/306 310/82/302 319/76/311
f 320/114/312 317/110/309 321/115/313
f 322/80/314 319/76/311 310/82/302
f 310/82/302 309/96/301 322/80/314
f 316/74/308 319/76/311 323/73/315
f 323/73/315 283/63/275 316/74/308
f 319/76/311 322/80/314 324/75/316
f 324/75/316 323/73/315 319/76/311
f 325/101/317 322/80/314 309/96/301
f 325/101/317 309/96/301 311/103/303
f 315/109/307 325/101/317 311/103/303
f 326/100/318 324/75/316 322/80/314
f 322/80/314 325/101/317 326/100/318
f 327/112/319 325/101/317 315/109/307
f 326/100/318 325/101/317 328/102/320
f 327/112/319 328/102/320 325/101/317
f 324/75/316 326/100/318 329/31/321
f 328/102/320 329/31/321 326/100/318
f 315/109/307 330/104/322 327/112/319
f 330/104/322 328/102/320 327/112/319
f 330/104/322 315/109/307 331/113/323
f 315/109/307 317/110/309 331/113/323
f 317/110/309 332/116/324 331/113/323
f 332/116/324 330/104/322 331/113/323
f 332/116/324 317/110/309 320/114/312
f 333/117/325 320/114/312 334/118/326
f 333/117/325 332/116/324 320/114/312
f 335/119/327 333/117/325 336/120/328
f 337/25/329 333/117/325 335/119/327
f 333/117/325 337/25/329 338/27/330
f 333/117/325 338/27/330 332/116/324
f 339/21/331 338/27/330 337/25/329
f 338/27/330 339/21/331 340/24/332
f 340/24/332 332/116/324 338/27/330
f 341/20/333 340/24/332 339/21/331
f 332/116/324 340/24/332 342/29/334
f 330/104/322 332/116/324 342/29/334
f 340/24/332 341/20/333 343/19/335
f 342/29/334 344/26/336 330/104/322
f 328/102/320 330/104/322 344/26/336
f 340/24/332 345/23/337 342/29/334
f 344/26/336 342/29/334 345/23/337
f 345/23/337 340/24/332 343/19/335
f 346/28/338 328/102/320 344/26/336
f 329/31/321 328/102/320 346/28/338
f 347/22/339 344/26/336 345/23/337
f 343/19/335 347/22/339 345/23/337
f 346/28/338 344/26/336 347/22/339
f 341/20/333 348/16/340 343/19/335
f 347/22/339 343/19/335 348/16/340
f 348/16/340 341/20/333 349/17/341
f 350/13/342 348/16/340 349/17/341
f 346/28/338 351/33/343 329/31/321
f 329/31/321 351/33/343 324/75/316
f 348/16/340 350/13/342 352/15/344
f 353/11/345 352/15/344 350/13/342
f 354/35/346 324/75/316 351/33/343
f 323/73/315 324/75/316 354/35/346
f 351/33/343 346/28/338 355/30/347
f 347/22/339 355/30/347 346/28/338
f 351/33/343 356/34/348 354/35/346
f 355/30/347 356/34/348 351/33/343
f 354/35/346 357/44/349 323/73/315
f 357/44/349 354/35/346 356/34/348
f 355/30/347 347/22/339 358/18/350
f 348/16/340 358/18/350 347/22/339
f 358/18/350 348/16/340 352/15/344
f 358/18/350 359/32/351 355/30/347
f 356/34/348 355/30/347 359/32/351
f 352/15/344 360/14/352 358/18/350
f 359/32/351 358/18/350 360/14/352
f 360/14/352 352/15/344 361/10/353
f 352/15/344 353/11/345 361/10/353
f 362/14/354 359/32/351 360/14/352
f 361/10/353 362/14/354 360/14/352
f 353/11/345 363/10/355 361/10/353
f 362/14/354 361/10/353 363/10/355
f 363/10/355 353/11/345 364/11/356
f 365/32/357 359/32/351 362/14/354
f 365/32/357 356/34/348 359/32/351
f 363/10/355 366/12/358 362/14/354
f 366/12/358 365/32/357 362/14/354
f 364/11/356 367/9/359 363/10/355
f 366/12/358 363/10/355 367/9/359
f 367/9/359 364/11/356 368/6/360
f 369/2/361 367/9/359 368/6/360
f 367/9/359 369/2/361 370/4/362
f 370/4/362 366/12/358 367/9/359
f 371/3/363 370/4/362 369/2/361
f 370/4/362 371/3/363 372/1/364
f 372/1/364 373/7/365 370/4/362
f 366/12/358 370/4/362 373/7/365
f 373/7/365 372/1/364 374/5/365
f 375/8/366 373/7/365 374/5/365
f 373/7/365 375/8/366 376/37/367
f 376/37/367 366/12/358 373/7/365
f 377/40/368 376/37/367 375/8/366
f 366/12/358 376/37/367 378/36/369
f 378/36/369 365/32/357 366/12/358
f 376/37/367 377/40/368 379/39/370
f 379/39/370 378/36/369 376/37/367
f 380/43/371 379/39/370 377/40/368
f 378/36/369 381/34/372 365/32/357
f 381/34/372 356/34/348 365/32/357
f 356/34/348 381/34/372 357/44/349
f 378/36/369 379/39/370 382/38/373
f 382/38/373 381/34/372 378/36/369
f 379/39/370 380/43/371 383/42/374
f 383/42/374 382/38/373 379/39/370
f 384/46/375 383/42/374 380/43/371
f 381/34/372 382/38/373 385/44/376
f 385/44/376 357/44/349 381/34/372
f 382/38/373 383/42/374 386/41/377
f 386/41/377 385/44/376 382/38/373
f 383/42/374 384/46/375 387/45/378
f 387/45/378 386/41/377 383/42/374
f 270/49/262 387/45/378 384/46/375
f 357/44/349 385/44/376 388/51/379
f 388/51/379 323/73/315 357/44/349
f 283/63/275 323/73/315 388/51/379
f 389/51/380 388/51/379 385/44/376
f 388/51/379 389/51/380 283/63/275
f 385/44/376 386/41/377 389/51/380
f 390/63/381 283/63/275 389/51/380
f 278/64/270 283/63/275 390/63/381
f 391/47/382 389/51/380 386/41/377
f 389/51/380 391/47/382 390/63/381
f 386/41/377 387/45/378 391/47/382
f 390/63/381 274/55/266 278/64/270
f 392/48/383 391/47/382 387/45/378
f 387/45/378 270/49/262 392/48/383
f 392/48/383 270/49/262 269/52/261
f 274/55/266 392/48/383 269/52/261
f 393/50/384 390/63/381 391/47/382
f 274/55/266 390/63/381 393/50/384
f 391/47/382 392/48/383 393/50/384
f 393/50/384 392/48/383 274/55/266
f 394/87/385 395/88/386 396/89/387
f 394/87/385 397/85/388 395/88/386
f 397/85/388 394/87/385 398/84/389
f 399/72/390 397/85/388 398/84/389
f 400/92/391 394/87/385 401/93/392
f 399/72/390 398/84/389 402/81/393
f 403/90/394 394/87/385 400/92/391
f 394/87/385 403/90/394 398/84/389
f 404/71/395 399/72/390 402/81/393
f 399/72/390 404/71/395 405/70/396
f 398/84/389 406/83/397 402/81/393
f 406/83/397 398/84/389 403/90/394
f 406/83/397 404/71/395 402/81/393
f 407/69/398 405/70/396 404/71/395
f 405/70/396 407/69/398 408/67/399
f 404/71/395 406/83/397 409/79/400
f 409/79/400 407/69/398 404/71/395
f 403/90/394 410/91/401 406/83/397
f 400/92/391 410/91/401 403/90/394
f 411/86/402 409/79/400 406/83/397
f 410/91/401 411/86/402 406/83/397
f 412/94/403 400/92/391 413/95/404
f 410/91/401 400/92/391 412/94/403
f 414/98/405 412/94/403 415/99/406
f 414/98/405 410/91/401 412/94/403
f 409/79/400 411/86/402 416/82/407
f 410/91/401 414/98/405 417/97/408
f 410/91/401 418/96/409 411/86/402
f 418/96/409 410/91/401 417/97/408
f 418/96/409 416/82/407 411/86/402
f 419/105/410 417/97/408 414/98/405
f 419/105/410 414/98/405 420/106/411
f 421/103/412 418/96/409 417/97/408
f 421/103/412 417/97/408 419/105/410
f 422/107/413 419/105/410 423/108/414
f 419/105/410 424/109/415 421/103/412
f 424/109/415 419/105/410 422/107/413
f 425/101/416 418/96/409 421/103/412
f 424/109/415 425/101/416 421/103/412
f 426/110/417 422/107/413 427/111/418
f 422/107/413 428/113/419 424/109/415
f 428/113/419 422/107/413 426/110/417
f 424/109/415 429/112/420 425/101/416
f 430/104/421 424/109/415 428/113/419
f 424/109/415 430/104/421 429/112/420
f 426/110/417 431/116/422 428/113/419
f 431/116/422 430/104/421 428/113/419
f 432/114/423 426/110/417 433/115/424
f 431/116/422 426/110/417 432/114/423
f 434/117/425 432/114/423 435/118/426
f 434/117/425 431/116/422 432/114/423
f 436/119/427 434/117/425 437/120/428
f 438/27/429 434/117/425 436/119/427
f 434/117/425 438/27/429 431/116/422
f 438/27/429 436/119/427 439/25/430
f 440/21/431 438/27/429 439/25/430
f 441/24/432 431/116/422 438/27/429
f 438/27/429 440/21/431 441/24/432
f 431/116/422 441/24/432 442/29/433
f 430/104/421 431/116/422 442/29/433
f 440/21/431 443/19/434 441/24/432
f 443/19/434 440/21/431 444/20/435
f 445/17/436 443/19/434 444/20/435
f 441/24/432 446/23/437 442/29/433
f 446/23/437 441/24/432 443/19/434
f 446/23/437 430/104/421 442/29/433
f 443/19/434 445/17/436 447/16/438
f 447/16/438 446/23/437 443/19/434
f 448/26/439 430/104/421 446/23/437
f 448/26/439 429/112/420 430/104/421
f 446/23/437 447/16/438 449/22/440
f 449/22/440 448/26/439 446/23/437
f 445/17/436 450/15/441 447/16/438
f 450/15/441 445/17/436 451/13/442
f 452/11/443 450/15/441 451/13/442
f 447/16/438 453/18/444 449/22/440
f 453/18/444 447/16/438 450/15/441
f 450/15/441 452/11/443 454/10/445
f 455/11/446 454/10/445 452/11/443
f 450/15/441 456/14/447 453/18/444
f 456/14/447 450/15/441 454/10/445
f 454/10/445 455/11/446 457/10/448
f 454/10/445 458/14/449 456/14/447
f 458/14/449 454/10/445 457/10/448
f 455/11/446 459/9/450 457/10/448
f 459/9/450 458/14/449 457/10/448
f 459/9/450 455/11/446 460/6/451
f 461/2/452 459/9/450 460/6/451
f 462/32/453 453/18/444 456/14/447
f 458/14/449 462/32/453 456/14/447
f 459/9/450 461/2/452 463/4/454
f 464/3/455 463/4/454 461/2/452
f 463/4/454 464/3/455 465/1/456
f 463/4/454 466/12/457 459/9/450
f 458/14/449 459/9/450 466/12/457
f 465/1/456 467/7/458 463/4/454
f 466/12/457 463/4/454 467/7/458
f 467/7/458 465/1/456 468/5/459
f 469/36/460 458/14/449 466/12/457
f 467/7/458 469/36/460 466/12/457
f 468/5/459 470/37/461 467/7/458
f 470/37/461 469/36/460 467/7/458
f 471/8/462 470/37/461 468/5/459
f 458/14/449 469/36/460 472/32/463
f 472/32/463 462/32/453 458/14/449
f 470/37/461 473/38/464 469/36/460
f 473/38/464 472/32/463 469/36/460
f 471/8/462 474/39/465 470/37/461
f 474/39/465 473/38/464 470/37/461
f 475/40/466 474/39/465 471/8/462
f 472/32/463 473/38/464 476/34/467
f 474/39/465 475/40/466 477/42/468
f 478/43/468 477/42/468 475/40/466
f 479/46/469 477/42/468 478/43/468
f 473/38/464 474/39/465 480/41/468
f 477/42/468 480/41/468 474/39/465
f 480/41/468 476/34/467 473/38/464
f 477/42/468 479/46/469 481/45/470
f 481/45/470 480/41/468 477/42/468
f 482/49/471 481/45/470 479/46/469
f 476/34/467 480/41/468 483/44/472
f 481/45/470 482/49/471 484/48/473
f 485/53/474 484/48/473 482/49/471
f 480/41/468 481/45/470 486/47/475
f 484/48/473 486/47/475 481/45/470
f 483/44/472 480/41/468 487/51/476
f 486/47/475 487/51/476 480/41/468
f 484/48/473 485/53/474 488/52/477
f 489/54/478 488/52/477 485/53/474
f 486/47/475 484/48/473 490/50/479
f 488/52/477 490/50/479 484/48/473
f 488/52/477 489/54/478 491/56/480
f 492/57/481 491/56/480 489/54/478
f 491/56/480 492/57/481 493/58/482
f 491/56/480 494/55/483 488/52/477
f 490/50/479 488/52/477 494/55/483
f 493/58/482 495/59/484 491/56/480
f 494/55/483 491/56/480 495/59/484
f 495/59/484 493/58/482 496/60/485
f 496/60/485 497/62/486 495/59/484
f 497/62/486 494/55/483 495/59/484
f 497/62/486 496/60/485 498/61/487
f 499/61/488 497/62/486 498/61/487
f 500/64/489 490/50/479 494/55/483
f 500/64/489 494/55/483 497/62/486
f 497/62/486 499/61/488 501/62/490
f 502/66/491 501/62/490 499/61/488
f 497/62/486 503/64/492 500/64/489
f 503/64/492 497/62/486 501/62/490
f 501/62/490 502/66/491 504/65/493
f 504/65/493 503/64/492 501/62/490
f 408/67/399 504/65/493 502/66/491
f 504/65/493 408/67/399 407/69/398
f 505/68/494 503/64/492 504/65/493
f 506/78/495 504/65/493 407/69/398
f 504/65/493 506/78/495 505/68/494
f 407/69/398 409/79/400 506/78/495
f 416/82/407 506/78/495 409/79/400
f 505/68/494 507/63/496 503/64/492
f 507/63/496 500/64/489 503/64/492
f 506/78/495 508/74/497 505/68/494
f 508/74/497 507/63/496 505/68/494
f 506/78/495 416/82/407 509/77/498
f 506/78/495 509/77/498 508/74/497
f 500/64/489 507/63/496 510/63/499
f 510/63/499 490/50/479 500/64/489
f 490/50/479 510/63/499 486/47/475
f 487/51/476 486/47/475 510/63/499
f 511/51/500 510/63/499 507/63/496
f 510/63/499 511/51/500 487/51/476
f 507/63/496 508/74/497 511/51/500
f 512/44/501 487/51/476 511/51/500
f 487/51/476 512/44/501 483/44/472
f 513/73/502 511/51/500 508/74/497
f 511/51/500 513/73/502 512/44/501
f 513/73/502 508/74/497 509/77/498
f 483/44/472 512/44/501 476/34/467
f 514/76/503 513/73/502 509/77/498
f 515/34/504 476/34/467 512/44/501
f 476/34/467 515/34/504 472/32/463
f 472/32/463 515/34/504 462/32/453
f 516/35/505 512/44/501 513/73/502
f 516/35/505 513/73/502 514/76/503
f 512/44/501 517/33/506 515/34/504
f 517/33/506 512/44/501 516/35/505
f 515/34/504 518/30/507 462/32/453
f 518/30/507 515/34/504 517/33/506
f 453/18/444 462/32/453 518/30/507
f 518/30/507 449/22/440 453/18/444
f 449/22/440 518/30/507 519/28/508
f 517/33/506 519/28/508 518/30/507
f 448/26/439 449/22/440 519/28/508
f 516/35/505 520/75/509 517/33/506
f 520/75/509 516/35/505 514/76/503
f 519/28/508 517/33/506 521/31/510
f 521/31/510 517/33/506 520/75/509
f 521/31/510 448/26/439 519/28/508
f 514/76/503 522/100/511 520/75/509
f 520/75/509 522/100/511 521/31/510
f 448/26/439 521/31/510 523/102/512
f 523/102/512 521/31/510 522/100/511
f 523/102/512 429/112/420 448/26/439
f 429/112/420 523/102/512 425/101/416
f 522/100/511 425/101/416 523/102/512
f 425/101/416 522/100/511 418/96/409
f 522/100/511 514/76/503 524/80/513
f 524/80/513 418/96/409 522/100/511
f 509/77/498 524/80/513 514/76/503
f 416/82/407 418/96/409 524/80/513
f 524/80/513 509/77/498 416/82/407
f 525/121/514 526/122/515 527/123/516
f 528/124/517 527/123/516 526/122/515
f 525/121/514 527/123/516 529/125/518
f 527/123/516 528/124/517 530/126/519
f 530/126/519 529/125/518 527/123/516
f 531/127/520 530/126/519 528/124/517
f 530/126/519 532/128/521 529/125/518
f 530/126/519 531/127/520 533/129/522
f 533/129/522 532/128/521 530/126/519
f 531/127/520 534/130/523 533/129/522
f 534/130/523 531/127/520 535/131/524
f 536/132/525 534/130/523 535/131/524
f 533/129/522 537/133/526 532/128/521
f 534/130/523 536/132/525 538/134/527
f 539/135/528 533/129/522 534/130/523
f 533/129/522 539/135/528 537/133/526
f 539/135/528 534/130/523 538/134/527
f 540/136/529 532/128/521 537/133/526
f 539/135/528 540/136/529 537/133/526
f 536/132/525 541/137/530 538/134/527
f 541/137/530 536/132/525 542/138/531
f 538/134/527 543/139/532 539/135/528
f 541/137/530 543/139/532 538/134/527
f 542/138/531 544/140/533 541/137/530
f 545/141/534 544/140/533 542/138/531
f 543/139/532 541/137/530 546/142/535
f 545/141/534 547/143/536 544/140/533
f 547/143/536 545/141/534 548/144/537
f 549/145/538 541/137/530 544/140/533
f 541/137/530 549/145/538 546/142/535
f 550/146/539 544/140/533 547/143/536
f 544/140/533 550/146/539 549/145/538
f 548/144/537 551/147/540 547/143/536
f 551/147/540 548/144/537 552/148/541
f 553/149/542 551/147/540 552/148/541
f 554/150/543 547/143/536 551/147/540
f 547/143/536 554/150/543 550/146/539
f 555/151/544 551/147/540 553/149/542
f 555/151/544 554/150/543 551/147/540
f 556/152/545 555/151/544 553/149/542
f 554/150/543 557/153/546 550/146/539
f 555/151/544 556/152/545 558/154/547
f 559/155/548 554/150/543 555/151/544
f 558/154/547 559/155/548 555/151/544
f 550/146/539 557/153/546 560/156/549
f 550/146/539 560/156/549 549/145/538
f 561/157/550 560/156/549 557/153/546
f 557/153/546 562/158/551 561/157/550
f 560/156/549 561/157/550 563/159/552
f 564/160/553 562/158/551 557/153/546
f 557/153/546 554/150/543 564/160/553
f 562/158/551 564/160/553 565/161/554
f 564/160/553 566/162/555 565/161/554
f 567/163/556 564/160/553 554/150/543
f 566/162/555 564/160/553 567/163/556
f 559/155/548 567/163/556 554/150/543
f 567/163/556 568/164/557 566/162/555
f 559/155/548 569/165/558 567/163/556
f 568/164/557 567/163/556 569/165/558
f 569/165/558 559/155/548 570/166/559
f 559/155/548 558/154/547 570/166/559
f 571/167/560 569/165/558 570/166/559
f 558/154/547 571/167/560 570/166/559
f 572/168/561 568/164/557 569/165/558
f 569/165/558 571/167/560 572/168/561
f 571/167/560 558/154/547 573/169/562
f 556/152/545 573/169/562 558/154/547
f 571/167/560 574/170/563 572/168/561
f 571/167/560 573/169/562 574/170/563
f 568/164/557 572/168/561 575/171/564
f 573/169/562 556/152/545 576/172/565
f 577/173/566 568/164/557 575/171/564
f 568/164/557 577/173/566 578/174/567
f 579/175/568 575/171/564 572/168/561
f 572/168/561 574/170/563 579/175/568
f 578/174/567 577/173/566 580/176/569
f 581/177/570 578/174/567 580/176/569
f 581/177/570 580/176/569 582/178/571
f 582/178/571 580/176/569 583/179/572
f 583/179/572 584/180/573 582/178/571
f 580/176/569 577/173/566 585/181/574
f 580/176/569 585/181/574 583/179/572
f 584/180/573 583/179/572 586/182/575
f 586/182/575 587/183/576 584/180/573
f 583/179/572 585/181/574 588/184/577
f 588/184/577 586/182/575 583/179/572
f 587/183/576 586/182/575 589/185/578
f 589/185/578 590/186/579 587/183/576
f 586/182/575 588/184/577 591/187/580
f 586/182/575 592/188/581 589/185/578
f 592/188/581 586/182/575 591/187/580
f 590/186/579 589/185/578 593/189/582
f 592/188/581 593/189/582 589/185/578
f 590/186/579 593/189/582 594/190/583
f 590/186/579 594/190/583 595/191/584
f 594/190/583 596/192/585 595/191/584
f 593/189/582 592/188/581 597/193/586
f 596/192/585 594/190/583 598/194/587
f 593/189/582 599/195/588 594/190/583
f 599/195/588 593/189/582 597/193/586
f 599/195/588 598/194/587 594/190/583
f 592/188/581 600/196/589 597/193/586
f 600/196/589 599/195/588 597/193/586
f 601/197/590 596/192/585 598/194/587
f 601/197/590 602/198/591 596/192/585
f 598/194/587 599/195/588 603/199/592
f 603/199/592 601/197/590 598/194/587
f 604/200/593 602/198/591 601/197/590
f 604/200/593 605/201/594 602/198/591
f 606/202/595 605/201/594 604/200/593
f 601/197/590 603/199/592 607/203/596
f 607/203/596 604/200/593 601/197/590
f 606/202/595 604/200/593 608/204/597
f 604/200/593 607/203/596 608/204/597
f 606/202/595 608/204/597 609/205/598
f 606/202/595 609/205/598 610/206/599
f 608/204/597 611/207/600 609/205/598
f 611/207/600 610/206/599 609/205/598
f 611/207/600 608/204/597 607/203/596
f 611/207/600 612/208/601 610/206/599
f 607/203/596 613/209/602 611/207/600
f 613/209/602 612/208/601 611/207/600
f 613/209/602 607/203/596 603/199/592
f 599/195/588 613/209/602 603/199/592
f 613/209/602 614/210/603 612/208/601
f 613/209/602 599/195/588 615/211/604
f 615/211/604 614/210/603 613/209/602
f 599/195/588 600/196/589 615/211/604
f 614/210/603 615/211/604 616/212/605
f 615/211/604 617/213/606 616/212/605
f 617/213/606 615/211/604 600/196/589
f 600/196/589 618/214/607 617/213/606
f 618/214/607 600/196/589 619/215/608
f 600/196/589 592/188/581 619/215/608
f 591/187/580 619/215/608 592/188/581
f 620/216/609 618/214/607 619/215/608
f 591/187/580 620/216/609 619/215/608
f 620/216/609 621/217/610 618/214/607
f 588/184/577 620/216/609 591/187/580
f 620/216/609 622/218/611 621/217/610
f 588/184/577 623/219/612 620/216/609
f 622/218/611 620/216/609 623/219/612
f 585/181/574 623/219/612 588/184/577
f 624/220/613 622/218/611 623/219/612
f 623/219/612 585/181/574 624/220/613
f 622/218/611 624/220/613 625/221/614
f 624/220/613 626/222/615 625/221/614
f 626/222/615 624/220/613 627/223/616
f 585/181/574 627/223/616 624/220/613
f 627/223/616 628/224/617 626/222/615
f 585/181/574 629/225/618 627/223/616
f 577/173/566 629/225/618 585/181/574
f 575/171/564 629/225/618 577/173/566
f 629/225/618 630/226/619 627/223/616
f 630/226/619 628/224/617 627/223/616
f 629/225/618 575/171/564 631/227/620
f 630/226/619 629/225/618 631/227/620
f 575/171/564 579/175/568 631/227/620
f 579/175/568 630/226/619 631/227/620
f 630/226/619 579/175/568 632/228/621
f 632/228/621 628/224/617 630/226/619
f 574/170/563 632/228/621 579/175/568
f 628/224/617 632/228/621 633/229/622
f 632/228/621 574/170/563 634/230/623
f 634/230/623 633/229/622 632/228/621
f 635/231/624 628/224/617 633/229/622
f 628/224/617 635/231/624 636/232/625
f 633/229/622 634/230/623 637/233/626
f 638/234/627 636/232/625 635/231/624
f 638/234/627 639/235/628 636/232/625
f 640/236/629 639/235/628 638/234/627
f 633/229/622 641/237/630 635/231/624
f 641/237/630 633/229/622 637/233/626
f 642/238/631 640/236/629 638/234/627
f 642/238/631 643/239/632 640/236/629
f 644/240/633 638/234/627 635/231/624
f 642/238/631 638/234/627 644/240/633
f 644/240/633 635/231/624 641/237/630
f 643/239/632 642/238/631 645/241/634
f 645/241/634 646/242/635 643/239/632
f 647/243/636 642/238/631 644/240/633
f 647/243/636 645/241/634 642/238/631
f 646/242/635 645/241/634 648/244/637
f 645/241/634 647/243/636 649/245/638
f 646/242/635 648/244/637 650/246/639
f 650/246/639 651/247/640 646/242/635
f 652/248/641 648/244/637 645/241/634
f 645/241/634 649/245/638 652/248/641
f 652/248/641 650/246/639 648/244/637
f 653/249/642 649/245/638 647/243/636
f 653/249/642 652/248/641 649/245/638
f 654/250/643 651/247/640 650/246/639
f 651/247/640 654/250/643 655/251/644
f 654/250/643 656/252/645 655/251/644
f 650/246/639 652/248/641 657/253/646
f 656/252/645 654/250/643 658/254/647
f 658/254/647 659/255/648 656/252/645
f 650/246/639 660/256/649 654/250/643
f 660/256/649 650/246/639 657/253/646
f 660/256/649 658/254/647 654/250/643
f 652/248/641 661/257/650 657/253/646
f 661/257/650 660/256/649 657/253/646
f 661/257/650 652/248/641 662/258/651
f 652/248/641 653/249/642 662/258/651
f 663/259/652 661/257/650 662/258/651
f 653/249/642 663/259/652 662/258/651
f 661/257/650 663/259/652 664/260/653
f 663/259/652 653/249/642 665/261/654
f 664/260/653 666/262/655 661/257/650
f 660/256/649 661/257/650 666/262/655
f 666/262/655 664/260/653 667/263/656
f 668/264/657 666/262/655 667/263/656
f 669/265/658 665/261/654 653/249/642
f 653/249/642 647/243/636 669/265/658
f 665/261/654 669/265/658 670/266/659
f 644/240/633 669/265/658 647/243/636
f 671/267/660 670/266/659 669/265/658
f 669/265/658 644/240/633 671/267/660
f 670/266/659 671/267/660 672/268/661
f 671/267/660 673/269/662 672/268/661
f 644/240/633 674/270/663 671/267/660
f 673/269/662 671/267/660 674/270/663
f 674/270/663 644/240/633 641/237/630
f 673/269/662 674/270/663 675/271/664
f 641/237/630 676/272/665 674/270/663
f 674/270/663 676/272/665 675/271/664
f 676/272/665 641/237/630 637/233/626
f 634/230/623 676/272/665 637/233/626
f 676/272/665 634/230/623 677/273/666
f 677/273/666 675/271/664 676/272/665
f 574/170/563 677/273/666 634/230/623
f 574/170/563 678/274/667 677/273/666
f 573/169/562 678/274/667 574/170/563
f 576/172/565 678/274/667 573/169/562
f 675/271/664 677/273/666 679/275/668
f 678/274/667 679/275/668 677/273/666
f 678/274/667 576/172/565 680/276/669
f 679/275/668 678/274/667 680/276/669
f 576/172/565 681/277/670 680/276/669
f 681/277/670 679/275/668 680/276/669
f 682/278/671 675/271/664 679/275/668
f 679/275/668 681/277/670 682/278/671
f 675/271/664 682/278/671 683/279/672
f 681/277/670 576/172/565 684/280/673
f 684/280/673 576/172/565 556/152/545
f 556/152/545 685/281/674 684/280/673
f 686/282/675 682/278/671 681/277/670
f 684/280/673 686/282/675 681/277/670
f 687/283/676 683/279/672 682/278/671
f 682/278/671 686/282/675 687/283/676
f 683/279/672 687/283/676 688/284/677
f 687/283/676 689/285/678 688/284/677
f 685/281/674 690/286/679 684/280/673
f 690/286/679 686/282/675 684/280/673
f 690/286/679 685/281/674 691/287/680
f 692/288/681 690/286/679 691/287/680
f 687/283/676 693/289/682 689/285/678
f 686/282/675 693/289/682 687/283/676
f 693/289/682 694/290/683 689/285/678
f 690/286/679 692/288/681 695/291/684
f 695/291/684 686/282/675 690/286/679
f 696/292/685 695/291/684 692/288/681
f 686/282/675 697/293/686 693/289/682
f 686/282/675 695/291/684 697/293/686
f 694/290/683 693/289/682 698/294/687
f 697/293/686 698/294/687 693/289/682
f 698/294/687 699/295/688 694/290/683
f 695/291/684 696/292/685 700/296/689
f 697/293/686 695/291/684 700/296/689
f 701/297/690 700/296/689 696/292/685
f 698/294/687 697/293/686 702/298/691
f 700/296/689 702/298/691 697/293/686
f 699/295/688 698/294/687 703/299/692
f 702/298/691 703/299/692 698/294/687
f 700/296/689 701/297/690 704/300/693
f 700/296/689 705/301/694 702/298/691
f 703/299/692 702/298/691 705/301/694
f 705/301/694 700/296/689 704/300/693
f 706/302/695 704/300/693 701/297/690
f 707/303/696 699/295/688 703/299/692
f 705/301/694 707/303/696 703/299/692
f 699/295/688 707/303/696 708/304/697
f 704/300/693 709/305/698 705/301/694
f 707/303/696 705/301/694 709/305/698
f 704/300/693 706/302/695 710/306/699
f 709/305/698 704/300/693 710/306/699
f 711/307/700 708/304/697 707/303/696
f 709/305/698 711/307/700 707/303/696
f 708/304/697 711/307/700 712/308/701
f 711/307/700 713/309/702 712/308/701
f 710/306/699 714/310/703 709/305/698
f 711/307/700 709/305/698 714/310/703
f 706/302/695 715/311/704 710/306/699
f 714/310/703 710/306/699 715/311/704
f 715/311/704 706/302/695 716/312/705
f 715/311/704 716/312/705 717/313/706
f 713/309/702 711/307/700 718/314/707
f 714/310/703 718/314/707 711/307/700
f 718/314/707 719/315/708 713/309/702
f 715/311/704 720/316/709 714/310/703
f 718/314/707 714/310/703 720/316/709
f 717/313/706 721/317/710 715/311/704
f 720/316/709 715/311/704 721/317/710
f 719/315/708 718/314/707 722/318/711
f 722/318/711 723/319/712 719/315/708
f 718/314/707 720/316/709 724/320/713
f 718/314/707 724/320/713 722/318/711
f 721/317/710 724/320/713 720/316/709
f 723/319/712 722/318/711 725/321/714
f 726/322/715 723/319/712 725/321/714
f 722/318/711 727/323/716 725/321/714
f 726/322/715 725/321/714 727/323/716
f 722/318/711 724/320/713 727/323/716
f 724/320/713 721/317/710 728/324/717
f 728/324/717 727/323/716 724/320/713
f 717/313/706 728/324/717 721/317/710
f 728/324/717 717/313/706 729/325/718
f 726/322/715 727/323/716 730/326/719
f 727/323/716 728/324/717 730/326/719
f 729/325/718 730/326/719 728/324/717
f 726/322/715 730/326/719 731/327/720
f 730/326/719 729/325/718 731/327/720
f 732/328/721 733/329/722 734/330/723
f 732/328/721 529/125/518 733/329/722
f 733/329/722 735/331/724 734/330/723
f 529/125/518 736/332/725 733/329/722
f 735/331/724 733/329/722 736/332/725
f 736/332/725 529/125/518 532/128/521
f 736/332/725 737/333/726 735/331/724
f 532/128/521 540/136/529 736/332/725
f 737/333/726 736/332/725 540/136/529
f 738/334/727 737/333/726 540/136/529
f 738/334/727 739/335/728 737/333/726
f 539/135/528 738/334/727 540/136/529
f 738/334/727 740/336/729 739/335/728
f 539/135/528 741/337/730 738/334/727
f 740/336/729 738/334/727 741/337/730
f 741/337/730 539/135/528 543/139/532
f 740/336/729 741/337/730 742/338/731
f 543/139/532 742/338/731 741/337/730
f 742/338/731 563/159/552 740/336/729
f 742/338/731 543/139/532 546/142/535
f 563/159/552 742/338/731 560/156/549
f 549/145/538 742/338/731 546/142/535
f 549/145/538 560/156/549 742/338/731
f 668/264/657 743/339/732 666/262/655
f 744/340/733 743/339/732 668/264/657
f 743/339/732 660/256/649 666/262/655
f 743/339/732 744/340/733 745/341/734
f 746/342/735 745/341/734 744/340/733
f 660/256/649 743/339/732 747/343/736
f 658/254/647 660/256/649 747/343/736
f 743/339/732 748/344/737 747/343/736
f 748/344/737 658/254/647 747/343/736
f 748/344/737 743/339/732 745/341/734
f 748/344/737 749/345/738 658/254/647
f 659/255/648 658/254/647 749/345/738
f 745/341/734 750/346/739 748/344/737
f 750/346/739 749/345/738 748/344/737
f 745/341/734 746/342/735 751/347/740
f 750/346/739 745/341/734 751/347/740
f 752/348/741 751/347/740 746/342/735
f 752/348/741 750/346/739 751/347/740
f 659/255/648 749/345/738 753/349/742
f 750/346/739 753/349/742 749/345/738
f 752/348/741 753/349/742 750/346/739
f 753/349/742 754/350/743 659/255/648
f 752/348/741 754/350/743 753/349/742
