# This file is brought to you by Roblox Corporation
# Generated by Roblox Studio

mtllib spongebob light house.mtl

g Bblths1

v -434.272 174.548 -39.2129 
v -433.218 174.548 -36.6691 
v -433.218 174.548 -41.7567 
v -430.675 174.548 -35.6154 
v -428.131 174.548 -36.6691 
v -427.077 174.548 -39.2129 
v -428.131 174.548 -41.7567 
v -430.675 174.548 -42.8104 
v -434.907 167.353 -39.2129 
v -433.667 167.353 -36.2204 
v -434.272 174.548 -39.2129 
v -433.218 174.548 -41.7567 
v -433.667 167.353 -42.2054 
v -433.218 174.548 -36.6691 
v -430.675 167.353 -34.9809 
v -430.675 174.548 -35.6154 
v -427.682 167.353 -36.2204 
v -428.131 174.548 -36.6691 
v -426.443 167.353 -39.2129 
v -427.077 174.548 -39.2129 
v -427.682 167.353 -42.2054 
v -428.131 174.548 -41.7567 
v -430.675 167.353 -43.4449 
v -430.675 174.548 -42.8104 
v -433.667 167.353 -42.2054 
v -433.218 174.548 -41.7567 
v -433.667 167.353 -36.2204 
v -434.907 167.353 -39.2129 
v -446.027 142.312 -23.861 
v -452.386 142.312 -39.2129 
v -434.907 167.353 -39.2129 
v -433.667 167.353 -42.2054 
v -452.386 142.312 -39.2129 
v -446.027 142.312 -54.5648 
v -430.675 167.353 -34.9809 
v -433.667 167.353 -36.2204 
v -430.675 142.312 -17.5019 
v -446.027 142.312 -23.861 
v -433.667 167.353 -42.2054 
v -430.675 167.353 -43.4449 
v -446.027 142.312 -54.5648 
v -430.675 142.312 -60.9239 
v -427.682 167.353 -36.2204 
v -430.675 167.353 -34.9809 
v -415.323 142.312 -23.861 
v -430.675 142.312 -17.5019 
v -430.675 167.353 -43.4449 
v -427.682 167.353 -42.2054 
v -430.675 142.312 -60.9239 
v -415.323 142.312 -54.5648 
v -426.443 167.353 -39.2129 
v -427.682 167.353 -36.2204 
v -408.964 142.312 -39.2129 
v -415.323 142.312 -23.861 
v -427.682 167.353 -42.2054 
v -426.443 167.353 -39.2129 
v -415.323 142.312 -54.5648 
v -408.964 142.312 -39.2129 
v -447.341 112.152 -22.5467 
v -454.244 112.152 -39.2129 
v -443.031 111.237 -26.8561 
v -448.15 111.237 -39.2129 
v -454.244 117.382 -39.2129 
v -447.341 117.382 -22.5467 
v -454.244 112.152 -39.2129 
v -447.341 112.152 -55.8791 
v -448.15 111.237 -39.2129 
v -443.031 111.237 -51.5697 
v -447.341 117.382 -55.8791 
v -454.244 117.382 -39.2129 
v -430.675 112.152 -15.6432 
v -447.341 112.152 -22.5467 
v -430.675 111.237 -21.7378 
v -443.031 111.237 -26.8561 
v -447.341 117.382 -22.5467 
v -430.675 117.382 -15.6432 
v -447.341 112.152 -55.8791 
v -430.675 112.152 -62.7824 
v -443.031 111.237 -51.5697 
v -430.675 111.237 -56.688 
v -430.675 117.382 -62.7824 
v -447.341 117.382 -55.8791 
v -414.008 112.152 -22.5467 
v -430.675 112.152 -15.6432 
v -418.318 111.237 -26.8561 
v -430.675 111.237 -21.7378 
v -430.675 117.382 -15.6432 
v -414.008 117.382 -22.5467 
v -414.008 112.152 -55.8791 
v -418.318 111.237 -51.5697 
v -430.675 112.152 -62.7824 
v -430.675 111.237 -56.688 
v -414.008 117.382 -55.8791 
v -430.675 117.382 -62.7824 
v -407.105 112.152 -39.2129 
v -414.008 112.152 -22.5467 
v -413.199 111.237 -39.2129 
v -418.318 111.237 -26.8561 
v -414.008 117.382 -22.5467 
v -407.105 117.382 -39.2129 
v -407.105 112.152 -39.2129 
v -413.199 111.237 -39.2129 
v -414.008 112.152 -55.8791 
v -418.318 111.237 -51.5697 
v -407.105 117.382 -39.2129 
v -414.008 117.382 -55.8791 
v -426.667 147.861 -42.2925 
v -425.538 147.882 -39.5684 
v -426.667 141.311 -42.2415 
v -425.538 141.333 -39.5173 
v -424.072 133.071 -44.7726 
v -421.868 133.113 -39.4532 
v -425.282 127.545 -43.5185 
v -423.581 127.578 -39.41 
v -429.391 124.2 -39.3837 
v -425.538 147.882 -39.5684 
v -426.667 147.904 -36.8442 
v -425.538 141.333 -39.5173 
v -426.667 141.354 -36.7931 
v -421.868 133.113 -39.4532 
v -424.072 133.154 -34.1338 
v -423.581 127.578 -39.41 
v -425.282 127.61 -35.3015 
v -429.391 124.2 -39.3837 
v -429.391 147.852 -43.421 
v -426.667 147.861 -42.2925 
v -429.391 141.303 -43.3699 
v -426.667 141.311 -42.2415 
v -429.391 133.054 -46.976 
v -424.072 133.071 -44.7726 
v -429.391 127.532 -45.2203 
v -425.282 127.545 -43.5185 
v -429.391 124.2 -39.3837 
v -426.667 147.904 -36.8442 
v -429.391 147.912 -35.7157 
v -426.667 141.354 -36.7931 
v -429.391 141.363 -35.6647 
v -424.072 133.154 -34.1338 
v -429.391 133.172 -31.9304 
v -425.282 127.61 -35.3015 
v -429.391 127.623 -33.5997 
v -429.391 124.2 -39.3837 
v -432.115 147.861 -42.2925 
v -429.391 147.852 -43.421 
v -432.115 141.311 -42.2415 
v -429.391 141.303 -43.3699 
v -434.711 133.071 -44.7726 
v -429.391 133.054 -46.976 
v -433.5 127.545 -43.5185 
v -429.391 127.532 -45.2203 
v -429.391 124.2 -39.3837 
v -429.391 147.912 -35.7157 
v -432.115 147.904 -36.8442 
v -429.391 141.363 -35.6647 
v -432.115 141.354 -36.7931 
v -429.391 133.172 -31.9304 
v -434.711 133.154 -34.1338 
v -429.391 127.623 -33.5997 
v -433.5 127.61 -35.3015 
v -429.391 124.2 -39.3837 
v -433.244 147.882 -39.5684 
v -432.115 147.861 -42.2925 
v -433.244 141.333 -39.5173 
v -432.115 141.311 -42.2415 
v -436.914 133.113 -39.4532 
v -434.711 133.071 -44.7726 
v -435.202 127.578 -39.41 
v -433.5 127.545 -43.5185 
v -429.391 124.2 -39.3837 
v -432.115 147.904 -36.8442 
v -433.244 147.882 -39.5684 
v -432.115 141.354 -36.7931 
v -433.244 141.333 -39.5173 
v -434.711 133.154 -34.1338 
v -436.914 133.113 -39.4532 
v -433.5 127.61 -35.3015 
v -435.202 127.578 -39.41 
v -429.391 124.2 -39.3837 
v -452.339 114.326 -39.0025 
v -445.994 114.326 -23.6832 
v -452.339 129.199 -39.0025 
v -445.994 129.199 -23.6832 
v -445.994 129.199 -54.3218 
v -445.994 114.326 -54.3219 
v -430.675 129.199 -60.6674 
v -430.675 114.326 -60.6674 
v -415.355 129.199 -54.3218 
v -415.355 114.326 -54.3218 
v -409.01 129.199 -39.0025 
v -409.01 114.326 -39.0025 
v -415.355 129.199 -23.6832 
v -415.355 114.326 -23.6832 
v -430.675 129.199 -17.3377 
v -430.675 114.326 -17.3377 
v -445.994 129.199 -23.6832 
v -445.994 114.326 -23.6832 
v -454.244 117.382 -39.2129 
v -447.341 117.382 -22.5467 
v -445.55 117.382 -39.2129 
v -441.193 117.382 -28.6943 
v -430.675 117.382 -15.6432 
v -430.675 117.382 -24.3374 
v -430.675 117.382 -15.6432 
v -414.008 117.382 -22.5467 
v -430.675 117.382 -24.3374 
v -420.156 117.382 -28.6943 
v -407.105 117.382 -39.2129 
v -415.799 117.382 -39.2129 
v -407.105 117.382 -39.2129 
v -414.008 117.382 -55.8791 
v -415.799 117.382 -39.2129 
v -420.156 117.382 -49.7315 
v -414.008 117.382 -55.8791 
v -430.675 117.382 -62.7824 
v -420.156 117.382 -49.7315 
v -430.675 117.382 -54.0884 
v -430.675 117.382 -62.7824 
v -447.341 117.382 -55.8791 
v -430.675 117.382 -54.0884 
v -441.193 117.382 -49.7315 
v -447.341 117.382 -55.8791 
v -454.244 117.382 -39.2129 
v -441.193 117.382 -49.7315 
v -445.55 117.382 -39.2129 
v -441.707 142.312 -28.1804 
v -446.277 142.312 -39.2129 
v -441.193 117.382 -28.6943 
v -430.675 117.382 -24.3374 
v -445.55 117.382 -39.2129 
v -430.675 142.312 -23.6106 
v -420.156 117.382 -28.6943 
v -419.642 142.312 -28.1804 
v -441.193 117.382 -49.7315 
v -441.707 142.312 -50.2454 
v -430.675 117.382 -54.0884 
v -430.675 142.312 -54.8152 
v -419.642 142.312 -50.2454 
v -420.156 117.382 -49.7315 
v -415.072 142.312 -39.2129 
v -415.799 117.382 -39.2129 
v -419.642 142.312 -28.1804 
v -420.156 117.382 -28.6943 
v -446.027 142.312 -23.861 
v -452.386 142.312 -39.2129 
v -441.707 142.312 -28.1804 
v -446.277 142.312 -39.2129 
v -430.675 142.312 -17.5019 
v -446.027 142.312 -23.861 
v -430.675 142.312 -23.6106 
v -441.707 142.312 -28.1804 
v -415.323 142.312 -23.861 
v -430.675 142.312 -17.5019 
v -419.642 142.312 -28.1804 
v -430.675 142.312 -23.6106 
v -408.964 142.312 -39.2129 
v -415.323 142.312 -23.861 
v -415.072 142.312 -39.2129 
v -419.642 142.312 -28.1804 
v -408.964 142.312 -39.2129 
v -415.072 142.312 -39.2129 
v -415.323 142.312 -54.5648 
v -419.642 142.312 -50.2454 
v -430.675 142.312 -60.9239 
v -415.323 142.312 -54.5648 
v -430.675 142.312 -54.8152 
v -419.642 142.312 -50.2454 
v -430.675 142.312 -60.9239 
v -430.675 142.312 -54.8152 
v -446.027 142.312 -54.5648 
v -441.707 142.312 -50.2454 
v -452.386 142.312 -39.2129 
v -446.027 142.312 -54.5648 
v -446.277 142.312 -39.2129 
v -441.707 142.312 -50.2454 
v -448.352 17.195 -21.5352 
v -430.675 17.195 -14.2129 
v -444.953 57.7147 -24.9347 
v -450.867 57.7147 -39.2129 
v -455.675 17.195 -39.2129 
v -430.675 57.7147 -19.0204 
v -412.997 17.195 -21.5352 
v -416.396 57.7147 -24.9347 
v -444.953 57.7147 -53.4911 
v -448.352 17.195 -56.8906 
v -448.986 87.2557 -39.2129 
v -430.675 87.2557 -20.9017 
v -417.727 87.2557 -26.2649 
v -443.623 87.2557 -26.2649 
v -430.675 111.237 -21.7378 
v -418.318 111.237 -26.8561 
v -443.031 111.237 -26.8561 
v -448.15 111.237 -39.2129 
v -443.031 111.237 -51.5697 
v -443.623 87.2557 -52.1609 
v -430.675 87.2557 -57.5241 
v -430.675 111.237 -56.688 
v -430.675 57.7147 -59.4054 
v -417.727 87.2557 -52.1609 
v -430.675 17.195 -64.2129 
v -418.318 111.237 -51.5697 
v -413.199 111.237 -39.2129 
v -416.396 57.7147 -53.4911 
v -412.997 17.195 -56.8906 
v -412.363 87.2557 -39.2129 
v -418.318 111.237 -26.8561 
v -417.727 87.2557 -26.2649 
v -410.482 57.7147 -39.2129 
v -416.396 57.7147 -24.9347 
v -405.675 17.195 -39.2129 
v -412.997 17.195 -21.5352 

vn 0 1 0 
vn 0 1 0 
vn 0 1 0 
vn 0 1 0 
vn 0 1 0 
vn 0 1 0 
vn 0 1 0 
vn 0 1 0 
vn -0.984252 0.0866142 -0.133858 
vn -0.795276 0.0866142 0.598425 
vn -0.984252 0.0866142 0.133858 
vn -0.92126 0.0787402 -0.377953 
vn -0.92126 0.0787402 -0.377953 
vn -0.598425 0.0866142 0.795276 
vn -0.133858 0.0866142 0.984252 
vn 0.133858 0.0866142 0.984252 
vn 0.598425 0.0866142 0.795276 
vn 0.795276 0.0866142 0.598425 
vn 0.984252 0.0866142 0.133858 
vn 0.984252 0.0866142 -0.133858 
vn 0.795276 0.0866142 -0.598425 
vn 0.598425 0.0866142 -0.795276 
vn 0.133858 0.0866142 -0.984252 
vn -0.133858 0.0866142 -0.984252 
vn -0.377953 0.0787402 -0.92126 
vn -0.377953 0.0787402 -0.92126 
vn -0.779528 0.543307 0.322835 
vn -0.779528 0.543307 0.322835 
vn -0.779528 0.543307 0.322835 
vn -0.779528 0.543307 0.322835 
vn -0.779528 0.543307 -0.322835 
vn -0.779528 0.543307 -0.322835 
vn -0.779528 0.543307 -0.322835 
vn -0.779528 0.543307 -0.322835 
vn -0.322835 0.543307 0.779528 
vn -0.322835 0.543307 0.779528 
vn -0.322835 0.543307 0.779528 
vn -0.322835 0.543307 0.779528 
vn -0.322835 0.543307 -0.779528 
vn -0.322835 0.543307 -0.779528 
vn -0.322835 0.543307 -0.779528 
vn -0.322835 0.543307 -0.779528 
vn 0.322835 0.543307 0.779528 
vn 0.322835 0.543307 0.779528 
vn 0.322835 0.543307 0.779528 
vn 0.322835 0.543307 0.779528 
vn 0.322835 0.543307 -0.779528 
vn 0.322835 0.543307 -0.779528 
vn 0.322835 0.543307 -0.779528 
vn 0.322835 0.543307 -0.779528 
vn 0.779528 0.543307 0.322835 
vn 0.779528 0.543307 0.322835 
vn 0.779528 0.543307 0.322835 
vn 0.779528 0.543307 0.322835 
vn 0.779528 0.543307 -0.322835 
vn 0.779528 0.543307 -0.322835 
vn 0.779528 0.543307 -0.322835 
vn 0.779528 0.543307 -0.322835 
vn -0.84252 -0.417323 0.346457 
vn -0.511811 -0.834646 0.212598 
vn -0.149606 -0.984252 0.0629921 
vn -0.149606 -0.984252 0.0629921 
vn -0.92126 0 0.385827 
vn -0.92126 0 0.385827 
vn -0.84252 -0.417323 -0.346457 
vn -0.511811 -0.834646 -0.212598 
vn -0.149606 -0.984252 -0.0629921 
vn -0.149606 -0.984252 -0.0629921 
vn -0.92126 0 -0.385827 
vn -0.92126 0 -0.385827 
vn -0.346457 -0.417323 0.84252 
vn -0.212598 -0.834646 0.511811 
vn -0.0629921 -0.984252 0.149606 
vn -0.0629921 -0.984252 0.149606 
vn -0.385827 0 0.92126 
vn -0.385827 0 0.92126 
vn -0.346457 -0.417323 -0.84252 
vn -0.212598 -0.834646 -0.511811 
vn -0.0629921 -0.984252 -0.149606 
vn -0.0629921 -0.984252 -0.149606 
vn -0.385827 0 -0.92126 
vn -0.385827 0 -0.92126 
vn 0.346457 -0.417323 0.84252 
vn 0.212598 -0.834646 0.511811 
vn 0.0629921 -0.984252 0.149606 
vn 0.0629921 -0.984252 0.149606 
vn 0.385827 0 0.92126 
vn 0.385827 0 0.92126 
vn 0.291339 -0.645669 -0.700787 
vn 0.0629921 -0.984252 -0.149606 
vn 0.291339 -0.645669 -0.700787 
vn 0.0629921 -0.984252 -0.149606 
vn 0.385827 0 -0.92126 
vn 0.385827 0 -0.92126 
vn 0.84252 -0.417323 0.346457 
vn 0.511811 -0.834646 0.212598 
vn 0.149606 -0.984252 0.0629921 
vn 0.149606 -0.984252 0.0629921 
vn 0.92126 0 0.385827 
vn 0.92126 0 0.385827 
vn 0.700787 -0.645669 -0.291339 
vn 0.149606 -0.984252 -0.0629921 
vn 0.700787 -0.645669 -0.291339 
vn 0.149606 -0.984252 -0.0629921 
vn 0.92126 0 -0.385827 
vn 0.92126 0 -0.385827 
vn 0.92126 0 -0.385827 
vn 0.92126 0 -0.385827 
vn 0.913386 0.125984 -0.377953 
vn 0.889764 0.251969 -0.370079 
vn 0.913386 0.165354 -0.377953 
vn 0.92126 -0.0629921 -0.377953 
vn 0.80315 -0.496063 -0.330709 
vn 0.740157 -0.606299 -0.299213 
vn 0.488189 -0.850394 -0.19685 
vn 0.92126 0 0.385827 
vn 0.92126 0 0.385827 
vn 0.913386 0.133858 0.377953 
vn 0.889764 0.259843 0.370079 
vn 0.913386 0.173228 0.377953 
vn 0.92126 -0.0551181 0.385827 
vn 0.80315 -0.488189 0.338583 
vn 0.740157 -0.598425 0.307087 
vn 0.488189 -0.84252 0.212598 
vn 0.385827 -0.00787402 -0.92126 
vn 0.385827 -0.00787402 -0.92126 
vn 0.377953 0.125984 -0.913386 
vn 0.370079 0.251969 -0.897638 
vn 0.377953 0.165354 -0.913386 
vn 0.385827 -0.0629921 -0.92126 
vn 0.330709 -0.503937 -0.80315 
vn 0.307087 -0.606299 -0.732283 
vn 0.204724 -0.850394 -0.488189 
vn 0.385827 0.00787402 0.92126 
vn 0.385827 0.00787402 0.92126 
vn 0.377953 0.133858 0.913386 
vn 0.370079 0.267717 0.889764 
vn 0.377953 0.181102 0.905512 
vn 0.385827 -0.0551181 0.92126 
vn 0.330709 -0.488189 0.80315 
vn 0.307087 -0.590551 0.740157 
vn 0.204724 -0.84252 0.496063 
vn -0.385827 -0.00787402 -0.92126 
vn -0.385827 -0.00787402 -0.92126 
vn -0.377953 0.125984 -0.913386 
vn -0.370079 0.251969 -0.897638 
vn -0.377953 0.165354 -0.913386 
vn -0.385827 -0.0629921 -0.92126 
vn -0.330709 -0.503937 -0.80315 
vn -0.307087 -0.606299 -0.732283 
vn -0.204724 -0.850394 -0.488189 
vn -0.385827 0.00787402 0.92126 
vn -0.385827 0.00787402 0.92126 
vn -0.377953 0.133858 0.913386 
vn -0.370079 0.267717 0.889764 
vn -0.377953 0.181102 0.905512 
vn -0.385827 -0.0551181 0.92126 
vn -0.330709 -0.488189 0.80315 
vn -0.307087 -0.590551 0.740157 
vn -0.204724 -0.84252 0.496063 
vn -0.92126 0 -0.385827 
vn -0.92126 0 -0.385827 
vn -0.913386 0.125984 -0.377953 
vn -0.889764 0.251969 -0.370079 
vn -0.913386 0.165354 -0.377953 
vn -0.92126 -0.0629921 -0.377953 
vn -0.80315 -0.496063 -0.330709 
vn -0.740157 -0.606299 -0.299213 
vn -0.488189 -0.850394 -0.19685 
vn -0.92126 0 0.385827 
vn -0.92126 0 0.385827 
vn -0.913386 0.133858 0.377953 
vn -0.889764 0.259843 0.370079 
vn -0.913386 0.173228 0.377953 
vn -0.92126 -0.0551181 0.385827 
vn -0.80315 -0.488189 0.338583 
vn -0.740157 -0.598425 0.307087 
vn -0.488189 -0.84252 0.212598 
vn -0.992126 0 -0.133858 
vn -0.92126 0 0.385827 
vn -0.992126 0 0.133858 
vn -0.92126 0 0.385827 
vn -0.795276 0 -0.606299 
vn -0.606299 0 -0.795276 
vn -0.133858 0 -0.992126 
vn 0.133858 0 -0.992126 
vn 0.606299 0 -0.795276 
vn 0.795276 0 -0.606299 
vn 0.992126 0 -0.133858 
vn 0.992126 0 0.133858 
vn 0.795276 0 0.606299 
vn 0.606299 0 0.795276 
vn 0.133858 0 0.992126 
vn -0.133858 0 0.992126 
vn -0.385827 0 0.92126 
vn -0.385827 0 0.92126 
vn 0 1 0 
vn 0 1 0 
vn 0 1 0 
vn 0 1 0 
vn 0 1 0 
vn 0 1 0 
vn 0 1 0 
vn 0 1 0 
vn 0 1 0 
vn 0 1 0 
vn 0 1 0 
vn 0 1 0 
vn 0 1 0 
vn 0 1 0 
vn 0 1 0 
vn 0 1 0 
vn 0 1 0 
vn 0 1 0 
vn 0 1 0 
vn 0 1 0 
vn 0 1 0 
vn 0 1 0 
vn 0 1 0 
vn 0 1 0 
vn 0 1 0 
vn 0 1 0 
vn 0 1 0 
vn 0 1 0 
vn -0.606299 -0.0314961 0.795276 
vn -1 -0.0314961 0 
vn -0.795276 -0.0314961 0.606299 
vn -0.133858 -0.0314961 0.992126 
vn -1 -0.0314961 0 
vn 0.133858 -0.0314961 0.992126 
vn 0.385827 -0.023622 0.92126 
vn 0.385827 -0.023622 0.92126 
vn -0.795276 -0.0314961 -0.606299 
vn -0.606299 -0.0314961 -0.795276 
vn 0 -0.0314961 -1 
vn 0 -0.0314961 -1 
vn 0.606299 -0.0314961 -0.795276 
vn 0.795276 -0.0314961 -0.606299 
vn 0.992126 -0.0314961 -0.133858 
vn 0.992126 -0.0314961 0.133858 
vn 0.92126 -0.023622 0.385827 
vn 0.92126 -0.023622 0.385827 
vn 0 -1 0 
vn 0 -1 0 
vn 0 -1 0 
vn 0 -1 0 
vn 0 -1 0 
vn 0 -1 0 
vn 0 -1 0 
vn 0 -1 0 
vn 0 -1 0 
vn 0 -1 0 
vn 0 -1 0 
vn 0 -1 0 
vn 0 -1 0 
vn 0 -1 0 
vn 0 -1 0 
vn 0 -1 0 
vn 0 -1 0 
vn 0 -1 0 
vn 0 -1 0 
vn 0 -1 0 
vn 0 -1 0 
vn 0 -1 0 
vn 0 -1 0 
vn 0 -1 0 
vn 0 -1 0 
vn 0 -1 0 
vn 0 -1 0 
vn 0 -1 0 
vn 0 -1 0 
vn 0 -1 0 
vn 0 -1 0 
vn 0 -1 0 
vn -0.795276 0.11811 0.598425 
vn -0.133858 0.11811 0.984252 
vn -0.700787 0.0944882 0.700787 
vn -0.992126 0.0944882 0 
vn -0.984252 0.11811 -0.133858 
vn 0 0.0944882 0.992126 
vn 0.377953 0.110236 0.92126 
vn 0.377953 0.0787402 0.92126 
vn -0.700787 0.0944882 -0.700787 
vn -0.598425 0.11811 -0.795276 
vn -1 0.0472441 0 
vn 0 0.0472441 1 
vn 0.385827 0.0393701 0.92126 
vn -0.708661 0.0472441 0.708661 
vn 0.133858 0.0314961 0.992126 
vn 0.385827 0.0314961 0.92126 
vn -0.606299 0.0314961 0.795276 
vn -0.992126 0.0314961 0.133858 
vn -0.708661 0.0314961 -0.708661 
vn -0.76378 0.0551181 -0.645669 
vn -0.133858 0.0472441 -0.992126 
vn 0.133858 0.0314961 -0.992126 
vn 0 0.0944882 -0.992126 
vn 0.661417 0.0472441 -0.748031 
vn 0.133858 0.11811 -0.984252 
vn 0.708661 0.0314961 -0.708661 
vn 0.992126 0.0314961 -0.133858 
vn 0.700787 0.0944882 -0.700787 
vn 0.795276 0.11811 -0.598425 
vn 1 0.0472441 0 
vn 0.92126 0.0314961 0.385827 
vn 0.92126 0.0472441 0.385827 
vn 0.992126 0.0944882 0 
vn 0.92126 0.0944882 0.377953 
vn 0.984252 0.11811 0.133858 
vn 0.92126 0.110236 0.377953 

vt 0.828991 0.781984 
vt 0.873792 0.800541 
vt 0.78419 0.800541 
vt 0.892349 0.845342 
vt 0.873792 0.890143 
vt 0.828991 0.9087 
vt 0.78419 0.890143 
vt 0.765633 0.845342 
vt 0.5061 0.931939 
vt 0.5061 0.770105 
vt 0.904986 0.93194 
vt 0.904985 0.768139 
vt 0.506099 0.768138 
vt 0.904987 0.770105 
vt 0.5061 0.933906 
vt 0.904988 0.933906 
vt 0.506101 0.768001 
vt 0.904988 0.768001 
vt 0.506101 0.931803 
vt 0.904987 0.931803 
vt 0.5061 0.769968 
vt 0.904987 0.769968 
vt 0.506101 0.933769 
vt 0.904987 0.933769 
vt 0.506101 0.767864 
vt 0.904987 0.767864 
vt 0.317094 0.967563 
vt 0.269718 0.967563 
vt 0.388158 0.801745 
vt 0.198653 0.801746 
vt 0.317094 0.967563 
vt 0.269718 0.967563 
vt 0.388158 0.801746 
vt 0.198653 0.801746 
vt 0.317094 0.967563 
vt 0.269718 0.967563 
vt 0.388158 0.801745 
vt 0.198653 0.801745 
vt 0.317094 0.967563 
vt 0.269718 0.967563 
vt 0.388158 0.801746 
vt 0.198652 0.801746 
vt 0.317094 0.967563 
vt 0.269717 0.967563 
vt 0.388158 0.801745 
vt 0.198652 0.801745 
vt 0.317094 0.967563 
vt 0.269717 0.967563 
vt 0.388158 0.801746 
vt 0.198652 0.801746 
vt 0.317094 0.967563 
vt 0.269717 0.967563 
vt 0.388158 0.801746 
vt 0.198652 0.801745 
vt 0.317094 0.967563 
vt 0.269717 0.967563 
vt 0.388158 0.801746 
vt 0.198652 0.801746 
vt 0.346618 0.082513 
vt 0.046618 0.082513 
vt 0.296618 0.021246 
vt 0.096618 0.021246 
vt 0.046618 0.180369 
vt 0.346618 0.180369 
vt 0.346618 0.082513 
vt 0.046618 0.082513 
vt 0.296618 0.021246 
vt 0.096618 0.021246 
vt 0.046618 0.180369 
vt 0.346618 0.180369 
vt 0.046618 0.082513 
vt 0.346618 0.082513 
vt 0.096618 0.021246 
vt 0.296618 0.021246 
vt 0.346618 0.180369 
vt 0.046618 0.180369 
vt 0.346618 0.082513 
vt 0.046618 0.082513 
vt 0.296618 0.021246 
vt 0.096618 0.021246 
vt 0.046618 0.180369 
vt 0.346618 0.180369 
vt 0.046618 0.082513 
vt 0.346618 0.082513 
vt 0.096618 0.021246 
vt 0.296618 0.021246 
vt 0.346618 0.180369 
vt 0.046618 0.180369 
vt 0.046618 0.082513 
vt 0.096618 0.021246 
vt 0.346618 0.082513 
vt 0.296618 0.021246 
vt 0.046618 0.180369 
vt 0.346618 0.180369 
vt 0.346618 0.082513 
vt 0.046618 0.082513 
vt 0.296618 0.021246 
vt 0.096618 0.021246 
vt 0.046618 0.180369 
vt 0.346618 0.180369 
vt 0.046618 0.082513 
vt 0.096618 0.021246 
vt 0.346618 0.082513 
vt 0.296618 0.021246 
vt 0.046618 0.180369 
vt 0.346618 0.180369 
vt 0.975443 0.683509 
vt 0.975443 0.745631 
vt 0.826085 0.683509 
vt 0.826085 0.745631 
vt 0.638646 0.62433 
vt 0.638647 0.74563 
vt 0.512425 0.650015 
vt 0.512424 0.745632 
vt 0.390016 0.698786 
vt 0.975443 0.746008 
vt 0.975443 0.683887 
vt 0.826085 0.746008 
vt 0.826085 0.683887 
vt 0.638647 0.746008 
vt 0.638647 0.624708 
vt 0.512424 0.746007 
vt 0.512425 0.65039 
vt 0.390017 0.699164 
vt 0.974348 0.745691 
vt 0.974348 0.683571 
vt 0.82499 0.745691 
vt 0.82499 0.68357 
vt 0.637551 0.745691 
vt 0.637551 0.624391 
vt 0.511328 0.745691 
vt 0.51133 0.650075 
vt 0.388921 0.698845 
vt 0.975037 0.683877 
vt 0.975037 0.745998 
vt 0.825679 0.683877 
vt 0.825679 0.745998 
vt 0.638241 0.624698 
vt 0.638241 0.745998 
vt 0.512019 0.650382 
vt 0.512019 0.745998 
vt 0.389611 0.699155 
vt 0.974348 0.683826 
vt 0.974348 0.745947 
vt 0.82499 0.683826 
vt 0.82499 0.745947 
vt 0.637551 0.624647 
vt 0.637551 0.745947 
vt 0.511329 0.65033 
vt 0.511328 0.745947 
vt 0.388921 0.699102 
vt 0.975037 0.74564 
vt 0.975037 0.683519 
vt 0.825679 0.74564 
vt 0.825679 0.683519 
vt 0.638241 0.74564 
vt 0.638241 0.62434 
vt 0.512019 0.74564 
vt 0.512019 0.650023 
vt 0.389611 0.698797 
vt 0.975443 0.745557 
vt 0.975443 0.683436 
vt 0.826085 0.745557 
vt 0.826085 0.683436 
vt 0.638647 0.745557 
vt 0.638646 0.624257 
vt 0.512425 0.745558 
vt 0.512424 0.649942 
vt 0.390016 0.698714 
vt 0.975443 0.683961 
vt 0.975443 0.746082 
vt 0.826085 0.683961 
vt 0.826085 0.746082 
vt 0.638647 0.624781 
vt 0.638647 0.746082 
vt 0.512425 0.650464 
vt 0.512425 0.746081 
vt 0.390017 0.699238 
vt 0.064584 0.319084 
vt 0.326954 0.319083 
vt 0.064585 0.545418 
vt 0.326955 0.545417 
vt 0.323985 0.545419 
vt 0.323985 0.319085 
vt 0.061615 0.545419 
vt 0.061615 0.319085 
vt 0.326878 0.545419 
vt 0.326878 0.319085 
vt 0.064508 0.545418 
vt 0.064508 0.319084 
vt 0.323908 0.545418 
vt 0.323908 0.319083 
vt 0.061538 0.545418 
vt 0.061538 0.319083 
vt 0.326802 0.545418 
vt 0.326801 0.319083 
vt 0.046618 0.180369 
vt 0.346618 0.180369 
vt 0.096618 0.27608 
vt 0.296618 0.27608 
vt 0.046618 0.180369 
vt 0.096618 0.27608 
vt 0.346618 0.180369 
vt 0.046618 0.180369 
vt 0.296618 0.27608 
vt 0.096618 0.27608 
vt 0.346618 0.180369 
vt 0.296618 0.27608 
vt 0.046618 0.180369 
vt 0.346618 0.180369 
vt 0.096618 0.27608 
vt 0.296618 0.27608 
vt 0.046618 0.180369 
vt 0.346618 0.180369 
vt 0.096618 0.27608 
vt 0.296618 0.27608 
vt 0.046618 0.180369 
vt 0.346618 0.180369 
vt 0.096618 0.27608 
vt 0.296618 0.27608 
vt 0.046618 0.180369 
vt 0.346618 0.180369 
vt 0.096618 0.27608 
vt 0.296618 0.27608 
vt 0.011507 0.99682 
vt 0.167113 0.99682 
vt 0.011507 0.597394 
vt 0.169242 0.597394 
vt 0.167112 0.597394 
vt 0.169242 0.99682 
vt 0.013636 0.597394 
vt 0.013636 0.99682 
vt 0.013791 0.597394 
vt 0.013791 0.99682 
vt 0.164983 0.597394 
vt 0.164983 0.99682 
vt 0.011662 0.99682 
vt 0.011662 0.597394 
vt 0.167268 0.99682 
vt 0.167268 0.597394 
vt 0.013946 0.99682 
vt 0.013946 0.597394 
vt 0.388158 0.801745 
vt 0.198653 0.801746 
vt 0.36447 0.730681 
vt 0.222341 0.730681 
vt 0.388158 0.801745 
vt 0.198653 0.801745 
vt 0.36447 0.730681 
vt 0.222341 0.730681 
vt 0.388158 0.801745 
vt 0.198652 0.801745 
vt 0.36447 0.730681 
vt 0.222341 0.730681 
vt 0.388158 0.801746 
vt 0.198652 0.801745 
vt 0.36447 0.730681 
vt 0.222341 0.730681 
vt 0.198652 0.801746 
vt 0.222341 0.730681 
vt 0.388158 0.801746 
vt 0.36447 0.730681 
vt 0.388158 0.801746 
vt 0.198652 0.801746 
vt 0.36447 0.730681 
vt 0.222341 0.730681 
vt 0.198652 0.801746 
vt 0.222341 0.730681 
vt 0.388158 0.801746 
vt 0.36447 0.730681 
vt 0.388158 0.801746 
vt 0.198653 0.801746 
vt 0.36447 0.730681 
vt 0.222341 0.730681 
vt 0.844213 0.015837 
vt 0.917566 0.015837 
vt 0.844213 0.255725 
vt 0.77086 0.255725 
vt 0.77086 0.015837 
vt 0.917566 0.255725 
vt 0.990919 0.015837 
vt 0.990919 0.255725 
vt 0.697506 0.255725 
vt 0.697506 0.015837 
vt 0.77086 0.447636 
vt 0.917566 0.447636 
vt 0.990919 0.447636 
vt 0.844213 0.447636 
vt 0.917566 0.591569 
vt 0.990919 0.591569 
vt 0.844213 0.591569 
vt 0.77086 0.591569 
vt 0.697506 0.591569 
vt 0.697506 0.447636 
vt 0.624153 0.447636 
vt 0.624153 0.591569 
vt 0.624153 0.255725 
vt 0.5508 0.447636 
vt 0.624153 0.015837 
vt 0.5508 0.591569 
vt 0.477447 0.591569 
vt 0.5508 0.255725 
vt 0.5508 0.015837 
vt 0.477447 0.447636 
vt 0.404094 0.591569 
vt 0.404094 0.447636 
vt 0.477447 0.255725 
vt 0.404094 0.255725 
vt 0.477447 0.015837 
vt 0.404094 0.015837 

usemtl Bblths1Mtl

f 1/1/1 2/2/2 3/3/3 
f 2/2/2 4/4/4 3/3/3 
f 4/4/4 5/5/5 3/3/3 
f 5/5/5 6/6/6 3/3/3 
f 6/6/6 7/7/7 3/3/3 
f 7/7/7 8/8/8 3/3/3 
f 9/9/9 10/10/10 11/11/11 
f 9/9/9 11/11/11 12/12/12 
f 13/13/13 9/9/9 12/12/12 
f 10/10/10 14/14/14 11/11/11 
f 10/10/10 15/15/15 14/14/14 
f 15/15/15 16/16/16 14/14/14 
f 15/15/15 17/17/17 16/16/16 
f 17/17/17 18/18/18 16/16/16 
f 17/17/17 19/19/19 18/18/18 
f 19/19/19 20/20/20 18/18/18 
f 19/19/19 21/21/21 20/20/20 
f 21/21/21 22/22/22 20/20/20 
f 21/21/21 23/23/23 22/22/22 
f 23/23/23 24/24/24 22/22/22 
f 23/23/23 25/25/25 24/24/24 
f 25/25/25 26/26/26 24/24/24 
f 27/27/27 28/28/28 29/29/29 
f 30/30/30 29/29/29 28/28/28 
f 31/31/31 32/32/32 33/33/33 
f 34/34/34 33/33/33 32/32/32 
f 35/35/35 36/36/36 37/37/37 
f 38/38/38 37/37/37 36/36/36 
f 39/39/39 40/40/40 41/41/41 
f 42/42/42 41/41/41 40/40/40 
f 43/43/43 44/44/44 45/45/45 
f 46/46/46 45/45/45 44/44/44 
f 47/47/47 48/48/48 49/49/49 
f 50/50/50 49/49/49 48/48/48 
f 51/51/51 52/52/52 53/53/53 
f 54/54/54 53/53/53 52/52/52 
f 55/55/55 56/56/56 57/57/57 
f 58/58/58 57/57/57 56/56/56 
f 59/59/59 60/60/60 61/61/61 
f 62/62/62 61/61/61 60/60/60 
f 60/60/60 59/59/59 63/63/63 
f 59/59/59 64/64/64 63/63/63 
f 65/65/65 66/66/66 67/67/67 
f 68/68/68 67/67/67 66/66/66 
f 66/66/66 65/65/65 69/69/69 
f 65/65/65 70/70/70 69/69/69 
f 71/71/71 72/72/72 73/73/73 
f 74/74/74 73/73/73 72/72/72 
f 72/72/72 71/71/71 75/75/75 
f 71/71/71 76/76/76 75/75/75 
f 77/77/77 78/78/78 79/79/79 
f 80/80/80 79/79/79 78/78/78 
f 78/78/78 77/77/77 81/81/81 
f 77/77/77 82/82/82 81/81/81 
f 83/83/83 84/84/84 85/85/85 
f 86/86/86 85/85/85 84/84/84 
f 84/84/84 83/83/83 87/87/87 
f 83/83/83 88/88/88 87/87/87 
f 89/89/89 90/90/90 91/91/91 
f 90/90/90 92/92/92 91/91/91 
f 89/89/89 91/91/91 93/93/93 
f 91/91/91 94/94/94 93/93/93 
f 95/95/95 96/96/96 97/97/97 
f 98/98/98 97/97/97 96/96/96 
f 96/96/96 95/95/95 99/99/99 
f 95/95/95 100/100/100 99/99/99 
f 101/101/101 102/102/102 103/103/103 
f 102/102/102 104/104/104 103/103/103 
f 101/101/101 103/103/103 105/105/105 
f 103/103/103 106/106/106 105/105/105 
f 107/107/107 108/108/108 109/109/109 
f 108/108/108 110/110/110 109/109/109 
f 109/109/109 110/110/110 111/111/111 
f 112/112/112 111/111/111 110/110/110 
f 111/111/111 112/112/112 113/113/113 
f 112/112/112 114/114/114 113/113/113 
f 113/113/113 114/114/114 115/115/115 
f 116/116/116 117/117/117 118/118/118 
f 117/117/117 119/119/119 118/118/118 
f 118/118/118 119/119/119 120/120/120 
f 121/121/121 120/120/120 119/119/119 
f 120/120/120 121/121/121 122/122/122 
f 121/121/121 123/123/123 122/122/122 
f 122/122/122 123/123/123 124/124/124 
f 125/125/125 126/126/126 127/127/127 
f 126/126/126 128/128/128 127/127/127 
f 127/127/127 128/128/128 129/129/129 
f 130/130/130 129/129/129 128/128/128 
f 129/129/129 130/130/130 131/131/131 
f 130/130/130 132/132/132 131/131/131 
f 131/131/131 132/132/132 133/133/133 
f 134/134/134 135/135/135 136/136/136 
f 135/135/135 137/137/137 136/136/136 
f 136/136/136 137/137/137 138/138/138 
f 139/139/139 138/138/138 137/137/137 
f 138/138/138 139/139/139 140/140/140 
f 139/139/139 141/141/141 140/140/140 
f 140/140/140 141/141/141 142/142/142 
f 143/143/143 144/144/144 145/145/145 
f 144/144/144 146/146/146 145/145/145 
f 145/145/145 146/146/146 147/147/147 
f 148/148/148 147/147/147 146/146/146 
f 147/147/147 148/148/148 149/149/149 
f 148/148/148 150/150/150 149/149/149 
f 149/149/149 150/150/150 151/151/151 
f 152/152/152 153/153/153 154/154/154 
f 153/153/153 155/155/155 154/154/154 
f 154/154/154 155/155/155 156/156/156 
f 157/157/157 156/156/156 155/155/155 
f 156/156/156 157/157/157 158/158/158 
f 157/157/157 159/159/159 158/158/158 
f 158/158/158 159/159/159 160/160/160 
f 161/161/161 162/162/162 163/163/163 
f 162/162/162 164/164/164 163/163/163 
f 163/163/163 164/164/164 165/165/165 
f 166/166/166 165/165/165 164/164/164 
f 165/165/165 166/166/166 167/167/167 
f 166/166/166 168/168/168 167/167/167 
f 167/167/167 168/168/168 169/169/169 
f 170/170/170 171/171/171 172/172/172 
f 171/171/171 173/173/173 172/172/172 
f 172/172/172 173/173/173 174/174/174 
f 175/175/175 174/174/174 173/173/173 
f 174/174/174 175/175/175 176/176/176 
f 175/175/175 177/177/177 176/176/176 
f 176/176/176 177/177/177 178/178/178 
f 179/179/179 180/180/180 181/181/181 
f 180/180/180 182/182/182 181/181/181 
f 179/179/179 181/181/181 183/183/183 
f 184/184/184 179/179/179 183/183/183 
f 184/184/184 183/183/183 185/185/185 
f 186/186/186 184/184/184 185/185/185 
f 186/186/186 185/185/185 187/187/187 
f 188/188/188 186/186/186 187/187/187 
f 188/188/188 187/187/187 189/189/189 
f 190/190/190 188/188/188 189/189/189 
f 190/190/190 189/189/189 191/191/191 
f 192/192/192 190/190/190 191/191/191 
f 192/192/192 191/191/191 193/193/193 
f 194/194/194 192/192/192 193/193/193 
f 194/194/194 193/193/193 195/195/195 
f 196/196/196 194/194/194 195/195/195 
f 197/197/197 198/198/198 199/199/199 
f 198/198/198 200/200/200 199/199/199 
f 198/198/198 201/201/201 200/200/200 
f 201/201/201 202/202/202 200/200/200 
f 203/203/203 204/204/204 205/205/205 
f 204/204/204 206/206/206 205/205/205 
f 204/204/204 207/207/207 206/206/206 
f 207/207/207 208/208/208 206/206/206 
f 209/209/209 210/210/210 211/211/211 
f 210/210/210 212/212/212 211/211/211 
f 213/213/213 214/214/214 215/215/215 
f 214/214/214 216/216/216 215/215/215 
f 217/217/217 218/218/218 219/219/219 
f 218/218/218 220/220/220 219/219/219 
f 221/221/221 222/222/222 223/223/223 
f 222/222/222 224/224/224 223/223/223 
f 225/225/225 226/226/226 227/227/227 
f 227/227/227 228/228/228 225/225/225 
f 229/229/229 227/227/227 226/226/226 
f 230/230/230 225/225/225 228/228/228 
f 228/228/228 231/231/231 230/230/230 
f 232/232/232 230/230/230 231/231/231 
f 233/233/233 229/229/229 226/226/226 
f 234/234/234 233/233/233 226/226/226 
f 235/235/235 233/233/233 234/234/234 
f 236/236/236 235/235/235 234/234/234 
f 236/236/236 237/237/237 235/235/235 
f 238/238/238 235/235/235 237/237/237 
f 237/237/237 239/239/239 238/238/238 
f 240/240/240 238/238/238 239/239/239 
f 239/239/239 241/241/241 240/240/240 
f 242/242/242 240/240/240 241/241/241 
f 243/243/243 244/244/244 245/245/245 
f 246/246/246 245/245/245 244/244/244 
f 247/247/247 248/248/248 249/249/249 
f 250/250/250 249/249/249 248/248/248 
f 251/251/251 252/252/252 253/253/253 
f 254/254/254 253/253/253 252/252/252 
f 255/255/255 256/256/256 257/257/257 
f 258/258/258 257/257/257 256/256/256 
f 259/259/259 260/260/260 261/261/261 
f 260/260/260 262/262/262 261/261/261 
f 263/263/263 264/264/264 265/265/265 
f 266/266/266 265/265/265 264/264/264 
f 267/267/267 268/268/268 269/269/269 
f 268/268/268 270/270/270 269/269/269 
f 271/271/271 272/272/272 273/273/273 
f 274/274/274 273/273/273 272/272/272 
f 275/275/275 276/276/276 277/277/277 
f 275/275/275 277/277/277 278/278/278 
f 279/279/279 275/275/275 278/278/278 
f 276/276/276 280/280/280 277/277/277 
f 276/276/276 281/281/281 280/280/280 
f 281/281/281 282/282/282 280/280/280 
f 279/279/279 278/278/278 283/283/283 
f 284/284/284 279/279/279 283/283/283 
f 278/278/278 277/277/277 285/285/285 
f 280/280/280 282/282/282 286/286/286 
f 282/282/282 287/287/287 286/286/286 
f 277/277/277 280/280/280 288/288/288 
f 280/280/280 286/286/286 288/288/288 
f 277/277/277 288/288/288 285/285/285 
f 286/286/286 287/287/287 289/289/289 
f 287/287/287 290/290/290 289/289/289 
f 286/286/286 289/289/289 291/291/291 
f 288/288/288 286/286/286 291/291/291 
f 288/288/288 291/291/291 292/292/292 
f 285/285/285 288/288/288 292/292/292 
f 285/285/285 292/292/292 293/293/293 
f 278/278/278 285/285/285 294/294/294 
f 294/294/294 285/285/285 293/293/293 
f 283/283/283 278/278/278 294/294/294 
f 294/294/294 293/293/293 295/295/295 
f 283/283/283 294/294/294 295/295/295 
f 295/295/295 293/293/293 296/296/296 
f 297/297/297 283/283/283 295/295/295 
f 284/284/284 283/283/283 297/297/297 
f 295/295/295 296/296/296 298/298/298 
f 297/297/297 295/295/295 298/298/298 
f 299/299/299 284/284/284 297/297/297 
f 298/298/298 296/296/296 300/300/300 
f 298/298/298 300/300/300 301/301/301 
f 299/299/299 297/297/297 302/302/302 
f 302/302/302 297/297/297 298/298/298 
f 303/303/303 299/299/299 302/302/302 
f 304/304/304 298/298/298 301/301/301 
f 302/302/302 298/298/298 304/304/304 
f 304/304/304 301/301/301 305/305/305 
f 306/306/306 304/304/304 305/305/305 
f 307/307/307 302/302/302 304/304/304 
f 307/307/307 304/304/304 306/306/306 
f 303/303/303 302/302/302 307/307/307 
f 308/308/308 307/307/307 306/306/306 
f 309/309/309 303/303/303 307/307/307 
f 309/309/309 307/307/307 308/308/308 
f 310/310/310 309/309/309 308/308/308 

